<svg width="147" height="151" viewBox="0 0 147 151" fill="none" xmlns="http://www.w3.org/2000/svg">
<path d="M144.983 129.949C135.541 140.244 125.485 154.672 110.276 146.398C103.049 142.467 99.82 129.504 102.056 122.295C103.911 116.315 104.072 108.237 111.252 105.966C116.891 104.182 123.012 106.103 125.787 111.636C133.667 127.352 111.088 131.593 101.466 127.161C88.333 121.112 80.6303 82.906 95.2556 74.9488C107.795 68.1263 111.132 84.0356 101.898 90.7708C88.9095 100.245 79.5106 98.3807 70.8132 82.8051C64.0223 70.6437 71.0155 53.7512 80.6539 46.3004C82.6556 44.753 91.6531 32.7134 92.7202 34.3949C103.25 50.9866 74.2105 64.6983 61.3646 58.6593C46.6049 51.7205 31.7501 44.5314 24.4463 29.7666C20.5187 21.8268 16.0277 -4.27598 15.9652 4.58192C15.8871 15.6671 14.7693 30.6357 7.90109 40.0406C5.85736 42.8392 -0.452997 51.9335 5.17996 42.9876C10.9812 33.7745 16.3059 25.7945 20.0824 16.168C20.9228 14.0258 18.8008 10.1882 18.2704 8.0719C17.8212 6.27943 23.8072 9.88589 24.562 10.1528C31.0789 12.4572 37.8085 11.3548 44.3067 9.53466C50.1065 7.91009 57.2486 3.96021 60.6441 6.79476" stroke="#00ADB5" stroke-opacity="0.2" stroke-width="4" stroke-linecap="round" stroke-linejoin="round"/>
</svg>
