<svg width="456" height="350" viewBox="0 0 456 350" fill="none" xmlns="http://www.w3.org/2000/svg">
<rect x="318.196" y="255.913" width="45.0309" height="92.9437" rx="3.51536" fill="#996DFF" stroke="black" stroke-width="1.64486" stroke-linejoin="round"/>
<rect x="200.395" y="282.751" width="45.0309" height="66.1053" rx="3.51536" fill="#EEEEEE" stroke="black" stroke-width="1.64486" stroke-linejoin="round"/>
<rect x="409.338" y="152.882" width="45.0309" height="195.974" rx="3.51536" fill="#996DFF" stroke="black" stroke-width="1.64486" stroke-linejoin="round"/>
<path d="M260.169 129.025L306.468 129.025C306.468 129.025 299.089 196.459 289.046 207.514C279.004 218.57 226.445 248.89 226.445 248.89L208.744 238.027L241.742 186.06C241.742 186.06 238.113 165.795 260.169 129.025Z" fill="#996DFF" stroke="black" stroke-width="1.39887"/>
<path d="M227.193 248.282L208.744 238.029L199.407 248.082C199.407 248.082 215.147 257.206 226.129 260.782L221.478 254.647L227.193 248.282Z" fill="#EEEEEE" stroke="black" stroke-width="1.39887" stroke-linejoin="round"/>
<path d="M260.366 128.042L310.954 127.976C310.954 127.976 339.075 152.705 342.618 167.215C346.161 181.724 342.121 234.381 342.121 234.381L321.675 243.421L300.567 187.803C300.567 187.803 278.498 166.897 260.366 128.042Z" fill="#996DFF"/>
<path d="M260.366 128.042L260.365 127.343C260.126 127.343 259.904 127.466 259.776 127.667C259.648 127.869 259.631 128.122 259.732 128.338L260.366 128.042ZM310.954 127.976L311.415 127.451L311.217 127.276L310.953 127.276L310.954 127.976ZM342.121 234.381L342.403 235.021L342.786 234.851L342.818 234.434L342.121 234.381ZM321.675 243.421L321.021 243.669L321.283 244.359L321.958 244.06L321.675 243.421ZM300.567 187.803L301.221 187.555L301.164 187.405L301.048 187.295L300.567 187.803ZM260.367 128.742L310.954 128.675L310.953 127.276L260.365 127.343L260.367 128.742ZM341.838 233.741L321.392 242.781L321.958 244.06L342.403 235.021L341.838 233.741ZM322.329 243.172L301.221 187.555L299.913 188.051L321.021 243.669L322.329 243.172ZM300.567 187.803C301.048 187.295 301.048 187.295 301.048 187.295C301.048 187.295 301.048 187.295 301.047 187.295C301.047 187.294 301.046 187.294 301.045 187.292C301.042 187.29 301.039 187.287 301.034 187.282C301.024 187.272 301.009 187.258 300.988 187.238C300.947 187.199 300.886 187.139 300.804 187.059C300.641 186.899 300.398 186.659 300.081 186.338C299.448 185.696 298.521 184.734 297.351 183.457C295.011 180.903 291.698 177.091 287.82 172.066C280.062 162.016 270.04 147.12 261 127.747L259.732 128.338C268.824 147.82 278.903 162.804 286.712 172.921C290.617 177.979 293.955 181.822 296.32 184.402C297.502 185.692 298.441 186.667 299.085 187.32C299.408 187.647 299.656 187.893 299.825 188.059C299.91 188.141 299.974 188.204 300.018 188.246C300.04 188.267 300.056 188.283 300.068 188.294C300.073 188.299 300.078 188.303 300.081 188.306C300.082 188.307 300.083 188.309 300.084 188.309C300.085 188.31 300.085 188.31 300.085 188.31C300.086 188.311 300.086 188.311 300.567 187.803ZM310.954 127.976C310.492 128.501 310.492 128.501 310.492 128.501C310.492 128.501 310.492 128.502 310.493 128.502C310.493 128.503 310.495 128.504 310.496 128.505C310.5 128.508 310.504 128.512 310.511 128.518C310.524 128.53 310.544 128.547 310.571 128.571C310.623 128.617 310.702 128.687 310.804 128.779C311.01 128.962 311.312 129.234 311.699 129.585C312.471 130.286 313.58 131.306 314.922 132.575C317.607 135.113 321.222 138.647 324.946 142.632C328.672 146.618 332.497 151.046 335.608 155.371C338.729 159.711 341.086 163.888 341.939 167.381L343.298 167.049C342.379 163.287 339.892 158.931 336.744 154.554C333.585 150.162 329.716 145.686 325.968 141.677C322.219 137.665 318.582 134.11 315.883 131.558C314.534 130.282 313.418 129.256 312.639 128.549C312.25 128.195 311.944 127.921 311.736 127.735C311.632 127.642 311.552 127.571 311.498 127.524C311.471 127.5 311.451 127.482 311.437 127.469C311.43 127.463 311.425 127.459 311.421 127.456C311.419 127.454 311.418 127.453 311.417 127.452C311.416 127.452 311.416 127.451 311.416 127.451C311.416 127.451 311.415 127.451 310.954 127.976ZM341.939 167.381C342.804 170.924 343.216 176.863 343.336 183.843C343.455 190.802 343.282 198.73 342.999 206.212C342.716 213.694 342.322 220.723 341.999 225.883C341.837 228.462 341.693 230.574 341.59 232.041C341.538 232.774 341.496 233.346 341.468 233.735C341.453 233.929 341.442 234.077 341.435 234.177C341.431 234.227 341.428 234.264 341.426 234.29C341.425 234.302 341.424 234.312 341.424 234.318C341.424 234.321 341.424 234.324 341.423 234.325C341.423 234.326 341.423 234.326 341.423 234.327C341.423 234.327 341.423 234.327 342.121 234.381C342.818 234.434 342.818 234.434 342.818 234.434C342.818 234.433 342.818 234.433 342.818 234.432C342.818 234.43 342.819 234.428 342.819 234.425C342.819 234.418 342.82 234.408 342.821 234.396C342.823 234.37 342.826 234.332 342.83 234.282C342.837 234.182 342.848 234.032 342.863 233.837C342.891 233.448 342.933 232.874 342.985 232.139C343.089 230.669 343.233 228.554 343.395 225.97C343.718 220.803 344.113 213.762 344.397 206.265C344.681 198.77 344.854 190.814 344.734 183.819C344.615 176.844 344.204 170.761 343.298 167.049L341.939 167.381Z" fill="black"/>
<path fill-rule="evenodd" clip-rule="evenodd" d="M304.736 45.5408C305.886 45.121 306.982 44.5075 307.982 43.6556C315.53 37.2252 312.293 27.5234 307.726 22.4724C303.158 17.4215 275.214 19.4362 288.396 42.8352C288.451 42.8686 288.508 42.9023 288.566 42.9361C290.039 47.6257 288.796 51.648 287.305 56.4743C286.697 58.4427 286.047 60.5448 285.524 62.8805L299.505 61.8788C303.347 56.6608 304.804 51.401 304.736 45.5408Z" fill="#F5B9AB"/>
<path d="M307.982 43.6556L308.515 44.2817L307.982 43.6556ZM304.736 45.5408L304.454 44.7682C304.126 44.8878 303.909 45.2014 303.913 45.5504L304.736 45.5408ZM307.726 22.4724L307.116 23.0241L307.726 22.4724ZM288.396 42.8352L287.679 43.2389C287.749 43.3627 287.85 43.4663 287.972 43.5397L288.396 42.8352ZM288.566 42.9361L289.35 42.6895C289.289 42.4951 289.158 42.3303 288.982 42.227L288.566 42.9361ZM287.305 56.4743L288.091 56.7171L287.305 56.4743ZM285.524 62.8805L284.721 62.7007C284.665 62.9545 284.731 63.2202 284.901 63.4172C285.07 63.6143 285.323 63.7195 285.583 63.7009L285.524 62.8805ZM299.505 61.8788L299.563 62.6991C299.804 62.6819 300.024 62.5603 300.167 62.3665L299.505 61.8788ZM307.449 43.0296C306.528 43.8141 305.519 44.3798 304.454 44.7682L305.017 46.3134C306.254 45.8623 307.436 45.2009 308.515 44.2817L307.449 43.0296ZM307.116 23.0241C309.304 25.4437 311.166 28.9766 311.58 32.6391C311.99 36.2638 310.988 40.0139 307.449 43.0296L308.515 44.2817C312.524 40.8669 313.678 36.5509 313.214 32.4543C312.755 28.3956 310.715 24.5521 308.336 21.9208L307.116 23.0241ZM289.112 42.4315C285.872 36.68 285.243 32.388 286.011 29.2684C286.774 26.171 288.959 24.0525 291.756 22.7284C294.565 21.3989 297.934 20.9038 300.883 21.0541C302.353 21.1291 303.695 21.3636 304.788 21.7195C305.897 22.0805 306.681 22.543 307.116 23.0241L308.336 21.9208C307.629 21.1391 306.539 20.5597 305.297 20.1554C304.04 19.7462 302.552 19.4922 300.966 19.4114C297.803 19.2501 294.153 19.7741 291.053 21.2417C287.941 22.7149 285.326 25.1716 284.414 28.8751C283.508 32.5564 284.329 37.2909 287.679 43.2389L289.112 42.4315ZM288.982 42.227C288.927 42.1946 288.873 42.1625 288.82 42.1307L287.972 43.5397C288.03 43.5747 288.089 43.6099 288.149 43.6452L288.982 42.227ZM288.091 56.7171C289.572 51.9253 290.912 47.6592 289.35 42.6895L287.781 43.1827C289.167 47.5922 288.021 51.3707 286.519 56.2314L288.091 56.7171ZM286.326 63.0604C286.842 60.7609 287.482 58.6882 288.091 56.7171L286.519 56.2314C285.912 58.1972 285.253 60.3288 284.721 62.7007L286.326 63.0604ZM299.446 61.0585L285.465 62.0602L285.583 63.7009L299.563 62.6991L299.446 61.0585ZM303.913 45.5504C303.98 51.2451 302.572 56.3274 298.842 61.3911L300.167 62.3665C304.123 56.9942 305.629 51.557 305.558 45.5312L303.913 45.5504Z" fill="black"/>
<path d="M285.888 28.7055C283.7 31.7492 286.056 39.2666 287.795 41.1469C273.389 33.1534 282.509 15.1182 286.954 18.4071C287.678 11.7392 295.329 9.38664 300.545 15.0259C313.622 4.4657 314.31 22.4599 309.694 25.1964C305.079 27.9329 299.479 25.3269 296.573 26.738C293.667 28.1492 291.873 36.6969 290.932 31.9528C289.991 27.2086 288.622 24.9009 285.888 28.7055Z" fill="#996DFF" stroke="black" stroke-width="1.64486"/>
<path d="M312.642 129.121C327.721 119.093 321.428 84.4377 319.283 74.5847C318.897 72.812 318.326 71.1115 317.632 69.435C311.933 55.6565 297.871 44.5588 284.404 50.9592C255.718 64.5922 259.983 108.079 260.253 129.447L312.642 129.121Z" fill="#EEEEEE" stroke="black" stroke-width="1.64486" stroke-linejoin="round"/>
<path d="M357.997 82.2287L345.895 67.4594L305.116 95.9898L291.936 69.4604L274.87 95.9895C274.87 95.9895 293.358 124.704 302.75 123.87C319.866 122.35 357.997 82.2287 357.997 82.2287Z" fill="#EEEEEE"/>
<path d="M292.839 71.3962L305.001 95.1753L345.894 67.4599L357.997 82.2292C357.997 82.2292 322.051 122.102 301.045 123.968C294.434 124.555 275.173 95.7023 275.173 95.7023" stroke="black" stroke-width="1.64486"/>
<path d="M349.919 64.7944L345.125 67.8709L357.158 83.1162L360.942 80.0502C364.969 76.7881 365.607 70.8873 362.371 66.8401C359.356 63.0704 353.981 62.1873 349.919 64.7944Z" fill="#F5B9AB" stroke="black" stroke-width="1.64486" stroke-linejoin="round"/>
<path d="M342.369 232.463L321.675 243.251L325.235 256.733L352.866 239.718L344.735 240.822L342.369 232.463Z" fill="#EEEEEE" stroke="black" stroke-width="1.39887" stroke-linejoin="round"/>
<path d="M5.72367 109.13C12.4911 96.9113 18.8881 80.529 35.6123 85.0102C43.5593 87.1396 49.7344 98.9859 49.2487 106.518C48.8457 112.766 50.5811 120.657 44.1332 124.547C39.0686 127.602 32.6683 127.168 28.6745 122.438C17.3328 109.005 38.2904 99.5936 48.6826 101.649C62.8673 104.454 79.3042 139.793 66.9494 150.954C56.3564 160.524 49.3867 145.839 56.7858 137.128C67.1942 124.875 76.7683 124.486 88.8718 137.592C98.3223 147.824 95.4801 165.885 87.8549 175.386C86.2712 177.359 80.3438 191.171 78.9126 189.786C64.7901 176.122 89.81 155.991 103.713 158.853C119.687 162.142 135.813 165.652 146.371 178.295C152.049 185.094 162.529 209.419 160.515 200.793C157.995 189.998 155.576 175.184 160.05 164.432C161.382 161.232 165.386 150.913 162.005 160.929C158.523 171.245 155.216 180.25 153.799 190.493C153.484 192.773 156.446 196.007 157.457 197.94C158.313 199.577 151.649 197.473 150.853 197.39C143.977 196.677 137.693 199.324 131.802 202.616C126.544 205.554 120.526 211.067 116.561 209.106" stroke="#00ADB5" stroke-opacity="0.2" stroke-width="4" stroke-linecap="round" stroke-linejoin="round"/>
</svg>
