<svg width="32" height="33" viewBox="0 0 32 33" fill="none" xmlns="http://www.w3.org/2000/svg">
<g clip-path="url(#clip0_104_1159)">
<path d="M7 16.8565C7 12.5915 8.807 8.55546 12.088 5.48946C12.491 5.11246 13.124 5.13446 13.501 5.53746C13.878 5.94146 13.856 6.57346 13.453 6.95146C10.581 9.63446 9 13.1515 9 16.8565C9 21.6195 11.605 26.0055 16 28.6965C20.395 26.0065 23 21.6195 23 16.8565C23 11.9185 20.199 7.38446 15.507 4.72646C15.026 4.45446 14.856 3.84246 15.13 3.36346C15.402 2.88246 16.012 2.71446 16.493 2.98646C21.82 6.00346 25 11.1895 25 16.8565C25 22.5245 21.82 27.7095 16.493 30.7265C16.187 30.8995 15.813 30.8995 15.508 30.7265C10.181 27.7095 7 22.5245 7 16.8565Z" fill="#EEEEEE"/>
<path d="M11 16.8564C11 14.0994 13.243 11.8564 16 11.8564C18.757 11.8564 21 14.0994 21 16.8564C21 19.6134 18.757 21.8564 16 21.8564C13.243 21.8564 11 19.6134 11 16.8564ZM19 16.8564C19 15.2024 17.654 13.8564 16 13.8564C14.346 13.8564 13 15.2024 13 16.8564C13 18.5104 14.346 19.8564 16 19.8564C17.654 19.8564 19 18.5104 19 16.8564Z" fill="#EEEEEE"/>
</g>
<defs>
<clipPath id="clip0_104_1159">
<rect width="32" height="32" fill="white" transform="translate(32 0.856445) rotate(90)"/>
</clipPath>
</defs>
</svg>
