<svg width="487" height="582" viewBox="0 0 487 582" fill="none" xmlns="http://www.w3.org/2000/svg">
<ellipse cx="155.453" cy="492.652" rx="154.453" ry="10.6519" fill="black" fill-opacity="0.5"/>
<path d="M163.163 367.572C162.001 367.744 160.634 367.835 160.358 369.218C160.143 370.291 160.225 371.394 160.867 372.324C161.965 373.914 163.597 374.841 165.562 374.514C167.319 374.221 169.732 372.629 169.732 370.652C169.732 369.537 168.929 368.414 168.265 367.58C167.553 366.686 166.937 365.745 166.041 365.014C164.832 364.028 163.855 363.931 162.768 365.094C162.173 365.73 161.61 366.599 161.35 367.432C161.222 367.843 161.316 368.172 161.316 368.584C161.316 369.132 161.214 368.323 161.316 368.051" stroke="#00ADB5" stroke-opacity="0.5" stroke-linecap="round" stroke-linejoin="round"/>
<path d="M169.185 370.714C170.174 371.592 171.012 372.386 172.76 372.429C173.984 372.459 175.208 372.153 176.355 371.824C177.176 371.589 179.809 370.342 177.675 370.241" stroke="#00ADB5" stroke-opacity="0.5" stroke-linecap="round" stroke-linejoin="round"/>
<path d="M179.38 363.056C178.076 364.497 176.275 367.32 176.951 369.485C177.189 370.246 177.534 370.758 177.981 371.408C178.881 372.716 180.275 372.309 181.539 371.967C182.456 371.719 183.545 370.939 183.896 370.051C184.381 368.826 183.371 366.911 182.528 366.067C181.586 365.125 180.84 363.98 179.791 363.155C179.512 362.936 179.3 362.698 178.935 362.779C178.526 362.87 178.358 363.262 178.901 363.262" stroke="#00ADB5" stroke-opacity="0.5" stroke-linecap="round" stroke-linejoin="round"/>
<path d="M271.618 165.622C270.457 165.794 269.09 165.885 268.813 167.268C268.598 168.34 268.68 169.444 269.322 170.374C270.42 171.963 272.052 172.891 274.017 172.563C275.774 172.271 278.187 170.679 278.187 168.701C278.187 167.586 277.384 166.464 276.72 165.63C276.008 164.735 275.392 163.795 274.496 163.064C273.287 162.077 272.31 161.981 271.223 163.144C270.628 163.78 270.065 164.648 269.805 165.481C269.677 165.892 269.771 166.221 269.771 166.633C269.771 167.182 269.669 166.373 269.771 166.101" stroke="#00ADB5" stroke-opacity="0.5" stroke-linecap="round" stroke-linejoin="round"/>
<path d="M277.64 168.764C278.629 169.642 279.467 170.436 281.215 170.478C282.439 170.508 283.662 170.203 284.81 169.874C285.631 169.639 288.264 168.392 286.13 168.291" stroke="#00ADB5" stroke-opacity="0.5" stroke-linecap="round" stroke-linejoin="round"/>
<path d="M287.835 161.106C286.531 162.547 284.73 165.37 285.406 167.534C285.644 168.295 285.989 168.808 286.436 169.458C287.336 170.766 288.73 170.358 289.995 170.017C290.911 169.769 292 168.988 292.351 168.101C292.836 166.876 291.826 164.96 290.983 164.117C290.041 163.175 289.295 162.029 288.246 161.205C287.967 160.986 287.755 160.748 287.391 160.829C286.981 160.92 286.813 161.311 287.356 161.311" stroke="#00ADB5" stroke-opacity="0.5" stroke-linecap="round" stroke-linejoin="round"/>
<path d="M171.542 123.736C178.241 120.544 183.656 115.268 189.101 110.291C193.381 106.38 197.869 102.516 202.592 99.1408C203.524 98.4749 204.841 97.1347 206.101 97.7059C207.349 98.2719 208.069 99.813 209.056 100.726C211.485 102.973 213.67 105.719 215.668 108.36C217.867 111.268 214.569 112.877 212.531 114.78C210.215 116.942 208.003 119.172 205.474 121.08C203.069 122.894 201.137 125.393 198.936 127.446C195.582 130.575 192.444 133.906 189.099 137.038C187.108 138.903 184.823 140.425 182.906 142.356C182.234 143.032 181.612 143.926 180.838 144.49C180.215 144.942 179.354 143.202 179.132 142.874C177.374 140.274 174.65 138.494 172.928 135.774C171.845 134.064 171.117 131.953 169.821 130.391C169.202 129.645 167.656 127.967 168.334 126.877C169.025 125.765 170.99 125.232 172.061 124.436C172.897 123.815 173.912 123.048 174.863 122.617C175.554 122.303 176.232 121.747 176.85 121.318C178.476 120.191 176.753 120.673 175.653 121.092" stroke="#00ADB5" stroke-opacity="0.5" stroke-linecap="round" stroke-linejoin="round"/>
<path d="M172.565 128.842C176.643 131.367 180.302 135.02 183.485 138.623C183.566 138.715 184.341 139.255 184.223 139.454C183.994 139.84 181.348 138.098 181.095 137.924" stroke="#00ADB5" stroke-opacity="0.5" stroke-linecap="round" stroke-linejoin="round"/>
<path d="M176.608 125.192C179.915 126.139 181.885 127.94 184.554 129.868C185.744 130.726 186.955 131.501 188.022 132.511C188.523 132.985 188.88 133.609 189.343 134.12C189.978 134.821 187.386 133.307 187.081 133.133" stroke="#00ADB5" stroke-opacity="0.5" stroke-linecap="round" stroke-linejoin="round"/>
<path d="M181.412 122.363C183.726 124.451 186.052 126.51 188.438 128.514C189.344 129.276 190.374 129.974 191.156 130.871C192.546 132.463 190.726 130.397 190.108 129.814" stroke="#00ADB5" stroke-opacity="0.5" stroke-linecap="round" stroke-linejoin="round"/>
<path d="M184.654 120.372C186.37 121.416 188.163 122.427 189.616 123.834C190.212 124.411 190.707 125.091 191.344 125.626C192.129 126.284 192.817 127.053 193.607 127.693C194.732 128.604 194.901 128.87 193.565 127.726" stroke="#00ADB5" stroke-opacity="0.5" stroke-linecap="round" stroke-linejoin="round"/>
<path d="M188.833 117.308C190.727 118.79 192.479 120.295 194.062 122.102C194.764 122.903 195.329 123.827 196.219 124.441C197.034 125.004 197.605 125.166 196.651 124.252" stroke="#00ADB5" stroke-opacity="0.5" stroke-linecap="round" stroke-linejoin="round"/>
<path d="M192.856 114.186C194.524 115.438 196.167 116.582 197.499 118.195C198.108 118.934 198.59 119.783 199.27 120.464C200.653 121.847 199.702 121.15 198.702 120.211" stroke="#00ADB5" stroke-opacity="0.5" stroke-linecap="round" stroke-linejoin="round"/>
<path d="M196.567 110.946C198.908 113.185 200.868 115.807 203.213 118.019C204.791 119.508 202.529 117.122 202.159 116.698" stroke="#00ADB5" stroke-opacity="0.5" stroke-linecap="round" stroke-linejoin="round"/>
<path d="M201.098 108.37C203.068 107.566 205.111 106.607 206.17 104.642C206.462 104.1 206.838 103.628 206.958 103.017C207.123 102.178 207.091 102.538 206.469 103.081" stroke="#00ADB5" stroke-opacity="0.5" stroke-linecap="round" stroke-linejoin="round"/>
<path d="M204.27 111.075C205.831 109.626 207.577 108.043 208.722 106.203C209.293 105.286 210.38 104.166 208.86 105.493" stroke="#00ADB5" stroke-opacity="0.5" stroke-linecap="round" stroke-linejoin="round"/>
<path d="M209.277 114.113C210.7 112.567 211.966 111.128 213.276 109.511C213.699 108.989 214.989 108.311 213.437 108.726" stroke="#00ADB5" stroke-opacity="0.5" stroke-linecap="round" stroke-linejoin="round"/>
<path d="M208.145 113.332C209.634 112.055 211.319 110.569 212.499 108.957C212.814 108.528 213.056 108.049 213.344 107.602C213.827 106.854 213.858 107.106 213.126 107.183" stroke="#00ADB5" stroke-opacity="0.5" stroke-linecap="round" stroke-linejoin="round"/>
<path d="M176.587 131.421C184.008 128.406 185.838 120.225 191.886 115.598C192.621 115.035 193.219 114.41 194.077 114.02C194.65 113.76 195.359 113.635 195.881 113.302C196.199 113.098 198.844 111.078 197.006 111.913" stroke="#00ADB5" stroke-opacity="0.5" stroke-linecap="round" stroke-linejoin="round"/>
<path d="M173.132 129.233C173.965 128.22 174.704 127.354 175.76 126.621C175.934 126.501 176.201 126.481 176.343 126.32C176.626 126.003 177.053 125.538 177.162 125.128C177.591 123.514 179.684 123.812 180.796 123.003C181.854 122.233 182.872 121.453 183.95 120.692C185.138 119.854 185.688 119.119 186.642 118.045C187.518 117.058 188.369 116.06 189.296 115.126C190.055 114.362 191.248 113.667 191.731 112.689C192.276 111.585 193.669 110.322 194.923 110.527C195.354 110.597 198.519 112.431 196.45 111.258" stroke="#00ADB5" stroke-opacity="0.5" stroke-linecap="round" stroke-linejoin="round"/>
<path d="M179.847 133.179C185.423 130.237 188.518 123.824 192.284 118.98C193.671 117.196 195.654 116.01 197.106 114.257C197.727 113.507 199.099 112.71 197.504 112.723" stroke="#00ADB5" stroke-opacity="0.5" stroke-linecap="round" stroke-linejoin="round"/>
<path d="M181.838 134.995C186.89 131.889 190.126 126.11 193.802 121.53C195.475 119.446 197.089 117.318 198.782 115.252C199.554 114.31 200.9 113.721 199.173 114.686" stroke="#00ADB5" stroke-opacity="0.5" stroke-linecap="round" stroke-linejoin="round"/>
<path d="M183.828 138.237C186.981 135.162 189.527 131.844 192.106 128.288C193.675 126.125 195.031 123.694 196.873 121.747C197.93 120.63 198.744 119.321 199.703 118.137C200.09 117.66 200.357 117.104 200.754 116.631C201.649 115.565 201.025 116.529 200.402 117.107" stroke="#00ADB5" stroke-opacity="0.5" stroke-linecap="round" stroke-linejoin="round"/>
<path d="M184.57 139.585C186.139 138.048 188.438 136.568 189.484 134.574C189.865 133.851 190.805 132.103 191.465 131.66C192.336 131.074 192.752 129.829 193.386 129.045C194.047 128.229 194.694 127.433 195.411 126.657C196.084 125.93 196.299 124.653 197.131 124.027C198.059 123.329 198.51 122.249 199.25 121.416C199.89 120.696 201.109 119.949 201.903 119.398C202.343 119.093 202.65 118.677 203.15 118.45C204.161 117.991 203.505 118.226 202.579 118.192" stroke="#00ADB5" stroke-opacity="0.5" stroke-linecap="round" stroke-linejoin="round"/>
<path d="M200.971 108.946C202.269 109.288 203.869 109.523 205.052 110.231C205.816 110.687 206.48 111.145 205.09 110.314" stroke="#00ADB5" stroke-opacity="0.5" stroke-linecap="round" stroke-linejoin="round"/>
<path d="M202.319 106.779C204.17 107.263 205.479 107.805 206.989 108.79C207.976 109.433 207.818 109.255 206.789 108.636" stroke="#00ADB5" stroke-opacity="0.5" stroke-linecap="round" stroke-linejoin="round"/>
<path d="M204.565 104.593C206.155 105.487 207.697 106.504 209.341 107.282C210.308 107.74 209.801 107.708 209.054 107.348" stroke="#00ADB5" stroke-opacity="0.5" stroke-linecap="round" stroke-linejoin="round"/>
<path d="M205.844 102.846C207.516 103.607 209.057 104.365 210.597 105.323C211.299 105.76 210.661 105.788 210.129 105.435" stroke="#00ADB5" stroke-opacity="0.5" stroke-linecap="round" stroke-linejoin="round"/>
<path d="M201.791 108.185C203.054 106.683 204.321 105.26 205.471 103.721C205.798 103.284 207.788 100.849 206.928 102.095" stroke="#00ADB5" stroke-opacity="0.5" stroke-linecap="round" stroke-linejoin="round"/>
<path d="M203.118 110.821C204.761 109.368 207.13 107.431 207.66 105.26C207.816 104.621 208.155 103.983 208.651 103.544C209.154 103.098 209.68 102.897 208.929 103.648" stroke="#00ADB5" stroke-opacity="0.5" stroke-linecap="round" stroke-linejoin="round"/>
<path d="M201.8 110.772C203.552 108.884 205.05 107.616 206.04 105.291C206.297 104.687 206.592 104.186 207.014 103.711C207.462 103.208 208.104 102.736 207.24 103.637" stroke="#00ADB5" stroke-opacity="0.5" stroke-linecap="round" stroke-linejoin="round"/>
<path d="M208.311 111.702C209.118 112.213 209.927 112.687 210.766 113.113C211.112 113.289 210.684 112.949 210.537 112.893" stroke="#00ADB5" stroke-opacity="0.5" stroke-linecap="round" stroke-linejoin="round"/>
<path d="M209.884 109.174C209.938 109.22 213.111 111.938 212.548 111.332" stroke="#00ADB5" stroke-opacity="0.5" stroke-linecap="round" stroke-linejoin="round"/>
<path d="M211.768 108.188C212.468 108.861 214.611 110.831 213.857 110.219" stroke="#00ADB5" stroke-opacity="0.5" stroke-linecap="round" stroke-linejoin="round"/>
<path d="M207.374 112.775C208.533 111.695 211.077 109.555 211.7 107.895C211.945 107.241 213.07 106.401 212.013 107.3" stroke="#00ADB5" stroke-opacity="0.5" stroke-linecap="round" stroke-linejoin="round"/>
<path d="M207.52 113.097C207.63 113.185 209.848 115.575 210.322 114.416C210.563 113.825 210.877 113.055 211.47 112.729C212.509 112.157 212.701 110.356 213.764 109.873C214.971 109.325 214.858 108.406 213.734 108.08C213.293 107.952 213.641 107.082 213.183 107.15C212.763 107.213 212.541 107.058 212.071 107.144" stroke="#00ADB5" stroke-opacity="0.5" stroke-linecap="round" stroke-linejoin="round"/>
<path d="M200.824 108.624C201.585 110.078 201.729 110.605 202.957 111.211C203.288 111.375 203.72 111.148 203.972 111.275C204.469 111.528 205.453 111.533 205.824 111.075C206.571 110.153 206.846 109.558 207.99 108.997C208.712 108.643 209.292 107.809 209.626 107.117C209.993 106.356 210.654 105.783 211.042 105.02C211.207 104.695 209.875 103.858 209.863 103.296C209.859 103.136 208.278 103.131 208.015 102.998C207.696 102.836 207.55 102.608 207.397 102.271C207.173 101.779 206.777 102.39 206.176 102.436" stroke="#00ADB5" stroke-opacity="0.5" stroke-linecap="round" stroke-linejoin="round"/>
<path d="M174.479 127.066C176.276 127.749 177.843 128.63 179.461 129.604C180.866 130.45 182.453 130.901 183.849 131.721C184.842 132.305 185.873 133.638 186.607 134.514C186.851 134.806 187.034 135.079 187.207 135.407C187.604 136.162 187.191 134.338 187.149 134.138" stroke="#00ADB5" stroke-opacity="0.5" stroke-linecap="round" stroke-linejoin="round"/>
<path d="M191.832 113.356C192.33 113.879 194.348 116.767 193.95 114.596" stroke="#00ADB5" stroke-opacity="0.5" stroke-linecap="round" stroke-linejoin="round"/>
<path d="M195.985 313.853C196.199 314.952 196.742 315.667 197.164 316.668C197.451 317.349 197.987 317.877 198.286 318.545C198.608 319.267 199.091 320.116 199.541 320.758C199.927 321.309 200.18 321.831 200.666 322.318C201.526 323.178 202.177 324.203 203.041 325.05C204.297 326.283 206.424 327.89 208.253 327.789C208.841 327.756 209.492 327.938 210.069 327.851C210.563 327.777 211.164 327.752 211.659 327.837C212.474 327.977 213.357 327.836 214.136 328.005C214.557 328.095 215.014 327.963 215.44 328.042C215.992 328.144 216.639 328.169 217.201 328.169C219.042 328.169 220.879 328.158 222.715 327.925C223.71 327.799 224.696 328.129 225.681 327.953C226.605 327.789 227.836 327.959 228.706 327.578C229.774 327.111 230.838 326.376 231.663 325.55C232.077 325.136 232.391 324.642 232.671 324.13C233.04 323.458 233.244 322.733 233.614 322.062C234.905 319.723 235.64 317.12 236.685 314.682C236.931 314.108 237.336 313.642 237.631 313.111C237.706 312.977 237.74 312.805 237.861 312.677C238.317 312.194 237.444 312.143 237.043 311.961" stroke="#00ADB5" stroke-opacity="0.5" stroke-linecap="round" stroke-linejoin="round"/>
<path d="M195.78 313.955C196.694 312.759 197.469 311.881 198.797 311.205C199.909 310.639 201.062 309.967 202.067 309.228C203.61 308.093 205.735 307.587 207.614 307.245C209.66 306.873 211.673 306.439 213.756 306.439C214.4 306.439 215.037 306.633 215.682 306.643C216.453 306.656 217.226 306.68 217.994 306.745C219.172 306.846 220.382 306.822 221.562 306.848C223.208 306.884 224.784 307.736 226.43 307.868C227.41 307.946 228.552 308.092 229.504 308.359C229.861 308.459 230.268 308.527 230.601 308.688C231.015 308.89 231.305 309.23 231.686 309.467C232.914 310.231 234.287 310.591 235.614 311.171C236.021 311.349 236.72 311.654 237.171 311.654C237.791 311.654 237.759 312.799 237.759 311.654" stroke="#00ADB5" stroke-opacity="0.5" stroke-linecap="round" stroke-linejoin="round"/>
<path d="M237.656 312.37C236.898 313.386 236.357 313.773 235.282 314.367C234.437 314.833 233.501 315.162 232.555 315.335C231.671 315.497 230.706 315.625 229.811 315.696C229.065 315.756 228.305 315.669 227.544 315.756C225.822 315.952 224.085 316.396 222.425 316.881C220.055 317.573 217.766 317.646 215.318 317.778C212.645 317.923 209.966 317.719 207.347 317.176C206.464 316.993 205.53 317.157 204.631 317.122C203.641 317.083 202.671 316.811 201.74 316.489C201.348 316.353 200.986 316.145 200.575 316.051C200.094 315.942 199.604 315.985 199.126 315.87C198.46 315.709 197.683 315.418 197.121 315.029C196.876 314.859 196.509 314.719 196.317 314.463C196.261 314.389 196.189 314.223 196.189 314.134C196.189 313.922 196.016 313.976 196.291 314.159" stroke="#00ADB5" stroke-opacity="0.5" stroke-linecap="round" stroke-linejoin="round"/>
<path d="M215.67 322.749C216.292 322.68 217.115 322.692 216.858 321.892C216.775 321.635 216.567 321.607 216.346 321.534C215.689 321.314 214.511 321.739 214.264 322.426C213.82 323.658 214.66 324.989 215.98 324.562C216.339 324.446 216.976 324.192 217.204 323.866C217.478 323.474 217.067 323.59 216.795 323.21" stroke="#00ADB5" stroke-opacity="0.5" stroke-linecap="round" stroke-linejoin="round"/>
<path d="M213.778 321.42C214.77 321.022 215.278 320.858 216.281 320.858C216.685 320.858 216.887 320.829 217.244 321.062C217.833 321.447 218.035 322.179 217.974 322.823C217.922 323.368 217.742 324.113 217.551 324.63C217.408 325.014 217.056 325.081 216.696 325.153C216.366 325.219 215.648 325.034 215.389 325.178C215.114 325.331 214.272 325.382 214.06 325.099C213.864 324.838 213.654 324.725 213.511 324.408C213.375 324.106 213.314 323.817 213.205 323.516C213.054 323.103 212.784 321.975 213.344 321.727C213.672 321.581 213.812 321.494 214.187 321.494C214.294 321.494 214.385 321.573 214.494 321.573C214.651 321.573 214.191 321.471 214.034 321.471" stroke="#00ADB5" stroke-opacity="0.5" stroke-linecap="round" stroke-linejoin="round"/>
<path d="M215.568 317.33C216.289 316.397 216.947 315.435 217.693 314.529C218.093 314.042 218.591 313.623 219.022 313.157C220.258 311.822 221.517 310.362 222.459 308.802C223.387 307.266 224.654 305.593 226.03 304.439C226.757 303.829 227.406 303.156 228.038 302.453C228.652 301.772 228.934 300.819 229.515 300.098C229.965 299.541 232.911 295.746 233.424 298.053C233.625 298.96 232.741 299.594 232.185 300.15C231.555 300.78 230.922 301.581 230.385 302.297C229.867 302.988 229.237 303.595 228.734 304.291C228.05 305.239 226.805 305.917 226.305 306.99C225.894 307.875 225.21 308.587 224.698 309.407C223.987 310.544 223.154 311.494 222.317 312.535C221.654 313.359 220.614 314.037 220.144 314.978C219.751 315.763 219.055 316.094 218.42 316.602C218.143 316.824 217.807 316.946 217.562 317.253C217.48 317.355 217.334 317.473 217.258 317.358C217.214 317.293 217.048 317.439 217.079 317.511C217.188 317.766 216.923 316.9 216.897 316.818" stroke="#00ADB5" stroke-opacity="0.5" stroke-linecap="round" stroke-linejoin="round"/>
<path d="M215.159 317.585C215.355 317.685 216.59 318.623 216.59 317.866C216.59 317.638 216.884 317.256 216.988 317.023C217.066 316.846 216.36 317.015 216.255 317.151C216.118 317.327 215.852 317.471 216.284 317.483C216.616 317.492 216.875 317.35 217.127 317.153C217.2 317.097 218.175 317.251 217.306 317.227C216.844 317.214 216.395 317.227 215.951 317.227C215.568 317.227 216.345 317.125 216.457 317.125C216.546 317.125 215.809 317.564 215.681 317.42C215.65 317.386 215.597 317.29 215.721 317.227" stroke="#00ADB5" stroke-opacity="0.5" stroke-linecap="round" stroke-linejoin="round"/>
<path d="M198.899 313.802C198.957 313.832 200.784 314.789 200.791 314.671C200.799 314.528 200.698 314.403 200.768 314.262C201.077 313.643 201.478 313.94 202.01 314.179C202.425 314.366 201.795 312.298 203.046 313.171C203.693 313.622 203.866 313.55 203.759 312.793C203.679 312.22 203.877 312.218 204.37 312.279C204.705 312.32 204.946 312.394 205.137 312.074C205.369 311.687 205.631 311.467 206.106 311.634C206.499 311.773 206.849 312.162 207.12 311.665C207.239 311.447 207.139 310.793 207.515 310.918C207.751 310.997 208.061 311.305 208.33 311.208C208.534 311.135 208.69 310.503 208.921 310.603C209.162 310.707 209.407 311.164 209.711 311.055C209.857 311.002 210.129 310.523 209.841 310.58" stroke="#00ADB5" stroke-opacity="0.5" stroke-linecap="round" stroke-linejoin="round"/>
<path d="M206.109 312.881C206.743 313.397 209.116 316.151 209.813 314.094C209.938 313.726 209.958 312.996 210.307 313.6C210.595 314.098 211.029 314.443 211.5 313.972C211.813 313.66 211.952 313.13 212.398 312.966C212.808 312.816 213.108 313.587 213.449 313.137C213.724 312.774 213.591 312.15 213.188 311.932C213.055 311.861 213.019 312.107 212.96 312.165" stroke="#00ADB5" stroke-opacity="0.5" stroke-linecap="round" stroke-linejoin="round"/>
<path d="M211.58 309.711C212.567 309.541 213.811 309.196 214.562 310.08C214.911 310.49 214.878 311.014 214.648 311.478C214.48 311.817 214.027 311.987 213.739 311.654C213.502 311.381 213.99 310.931 214.165 310.765C214.763 310.194 215.651 311.108 215.838 311.728C215.994 312.246 214.579 313.446 214.75 312.932" stroke="#00ADB5" stroke-opacity="0.5" stroke-linecap="round" stroke-linejoin="round"/>
<path d="M228.197 311.45C228.491 311.349 230.377 310.741 230.015 311.745C229.829 312.26 229.118 312.536 228.652 312.705C228.431 312.785 227.861 312.771 228.231 312.449C228.552 312.171 229.003 312.04 229.424 312.074C231.065 312.208 228.771 314.093 228.299 314.353C227.384 314.858 226.139 315.389 225.18 314.773" stroke="#00ADB5" stroke-opacity="0.5" stroke-linecap="round" stroke-linejoin="round"/>
<path d="M218.124 308.433C218.514 309.066 218.982 309.702 219.315 310.367C219.429 310.596 218.934 310.01 218.818 309.782C218.787 309.722 218.574 309.05 218.553 309.055C218.304 309.11 218.246 310.25 218.178 310.461C217.86 311.456 217.073 311.075 216.301 311.001C215.366 310.911 214.948 311.833 214.432 312.421C214.018 312.892 213.856 313.036 214.136 313.597C214.363 314.051 214.457 314.491 214.136 314.901C213.886 315.221 213.572 315.423 213.27 315.688C212.993 315.93 213.39 315.89 213.338 315.745C213.196 315.347 212.321 315.43 212.034 315.449C210.97 315.519 209.886 315.253 208.841 315.318C208.286 315.353 207.764 315.663 207.214 315.745C206.655 315.827 207.393 316.312 207.603 316.452C207.963 316.692 206.898 315.941 206.506 315.756C205.85 315.445 205.244 315.205 204.904 314.517C204.564 313.828 204.264 313.359 203.688 312.853C203.49 312.678 203.467 312.413 203.563 312.177C203.788 311.629 204.286 311.183 204.779 310.887" stroke="#00ADB5" stroke-opacity="0.5" stroke-linecap="round" stroke-linejoin="round"/>
<path d="M218.022 310.478C216.741 309.584 215.683 309.198 214.176 308.995C213.646 308.924 213.081 308.557 212.736 308.152C212.429 307.792 212.603 307.887 212.242 308.376C211.748 309.044 211.381 308.444 210.75 308.62C209.783 308.89 208.953 309.789 207.972 309.955C207.703 310.001 207.768 309.551 207.432 309.745C206.867 310.071 206.434 310.38 205.774 310.484C205.374 310.546 204.616 310.81 204.677 311.296" stroke="#00ADB5" stroke-opacity="0.5" stroke-linecap="round" stroke-linejoin="round"/>
<path d="M226.714 310.478C227.951 310.597 229.204 310.582 230.436 310.714C230.869 310.76 231.091 310.935 231.396 311.219C231.671 311.476 232.1 312.078 232.495 312.111C233.064 312.159 233.358 311.922 233.89 311.756C234.21 311.656 235.231 311.756 234.895 311.756" stroke="#00ADB5" stroke-opacity="0.5" stroke-linecap="round" stroke-linejoin="round"/>
<path d="M225.794 311.859C224.465 312.735 223.755 314.063 222.332 314.861C222.05 315.019 221.187 315.325 221.252 315.844C221.299 316.22 224.18 315.043 224.618 314.824" stroke="#00ADB5" stroke-opacity="0.5" stroke-linecap="round" stroke-linejoin="round"/>
<path d="M230.754 313.086C231.477 313.624 232.1 314.393 233.004 314.12C233.248 314.046 233.76 314.017 233.924 313.853" stroke="#00ADB5" stroke-opacity="0.5" stroke-linecap="round" stroke-linejoin="round"/>
<path d="M409.441 290.795C405.708 291.512 402.993 292.59 400.626 295.633C399.127 297.561 399.455 300.596 400.438 302.641C402.058 306.009 406.038 307.911 409.63 308.076C413.813 308.268 419.629 307.039 420.487 302.049C420.947 299.374 418.391 296.845 417.195 294.652C416.222 292.867 414.756 290.462 412.707 289.707C411.87 289.399 409.929 289.506 409.32 290.338C409.049 290.71 408.699 291.103 408.501 291.521C408.34 291.86 408.513 290.659 408.474 290.312" stroke="#00ADB5" stroke-opacity="0.5" stroke-linecap="round" stroke-linejoin="round"/>
<path d="M411.014 299.987C410.006 300.504 408.371 300.848 409.253 301.982C409.454 302.241 409.741 302.227 409.986 301.982C410.195 301.773 411.248 300.676 410.47 300.417C408.883 299.888 409.463 303.054 410.597 301.653C411.206 300.9 410.354 300.16 409.589 300.618C408.679 301.165 409.399 302.119 410.113 301.29C410.652 300.666 410.222 300.187 409.636 300.773C409.112 301.297 409.645 302.134 410.16 301.424C410.689 300.697 410.086 300.081 409.448 300.719C408.71 301.458 409.509 301.38 410.033 300.894C410.561 300.403 409.624 300.476 409.321 300.86C408.615 301.753 409.72 301.626 409.898 300.86C410.16 299.735 409 302.32 409.563 300.349" stroke="#00ADB5" stroke-opacity="0.5" stroke-linecap="round" stroke-linejoin="round"/>
<path d="M406.902 296.238C407.976 297.655 409.077 298.999 409.979 300.417C410.229 300.809 410.029 301.204 410.167 301.196C410.676 301.168 411.197 301.075 411.739 301.075C412.98 301.075 413.957 300.47 415.153 300.47C416.6 300.47 418.727 300.094 416.335 298.898" stroke="#00ADB5" stroke-opacity="0.5" stroke-linecap="round" stroke-linejoin="round"/>
<path d="M405.692 290.674C405.466 289.531 404.362 286.759 406.418 287.053C407.155 287.158 407.65 287.921 408.084 288.403C409.213 289.658 409.092 291.172 407.264 291.279C406.786 291.307 406.111 292.257 405.571 291.581C404.96 290.817 405.584 290.868 405.692 289.949C405.763 289.347 405.37 289.397 405.202 288.807C405.072 288.354 405.341 287.858 405.45 287.53" stroke="#00ADB5" stroke-opacity="0.5" stroke-linecap="round" stroke-linejoin="round"/>
<path d="M406.418 289.344C406.407 289.633 405.962 292.236 406.908 291.81C407.225 291.667 407.499 291.46 407.627 291.131C407.752 290.813 407.62 290.623 407.48 290.312C407.119 289.51 406.072 288.264 406.391 290.07C406.592 291.209 407.864 290.943 407.963 289.855C408.039 289.024 406.991 287.911 406.324 288.86C405.852 289.532 406.692 291.013 407.184 289.976C407.433 289.449 406.837 288.11 406.203 288.766C405.553 289.439 406.53 290.859 407.17 290.285C407.804 289.717 407.373 287.984 406.687 288.645C406.059 289.25 407.001 290.454 407.48 289.532C408.013 288.504 406.837 287.73 406.472 288.807C406.145 289.768 407.163 290.802 407.399 289.492C407.578 288.495 405.746 287.964 405.746 289.156C405.746 290.254 406.727 290.141 406.727 289.143C406.727 288.101 405.679 288.336 406.116 289.21C406.553 290.084 407.138 288.533 406.646 288.041C406.072 287.466 405.312 288.354 405.988 288.907C406.449 289.284 407.079 287.72 406.304 287.429C405.634 287.178 406.005 288.545 406.237 288.235C406.596 287.756 406.045 287.435 406.425 287.53C406.759 287.614 407.572 287.792 407.802 288.088C407.983 288.32 408.716 289.613 408.716 289.949C408.716 290.976 407.145 291.53 406.243 291.272C405.596 291.088 405.405 291.545 405.632 291.393C406.182 291.026 406.297 290.07 406.297 290.433" stroke="#00ADB5" stroke-opacity="0.5" stroke-linecap="round" stroke-linejoin="round"/>
<path d="M406.297 307.969C405.674 309.29 405.122 310.617 404.389 311.865C404.224 312.147 403.915 312.72 403.878 313.048C403.78 313.93 404.667 310.944 404.846 310.508" stroke="#00ADB5" stroke-opacity="0.5" stroke-linecap="round" stroke-linejoin="round"/>
<path d="M418.512 305.429C420.043 307.363 421.732 308.742 422.926 310.864C423.044 311.073 423.247 311.239 423.41 311.402C423.953 311.945 422.401 310.242 421.898 309.662" stroke="#00ADB5" stroke-opacity="0.5" stroke-linecap="round" stroke-linejoin="round"/>
<path d="M247.622 223.454C246.822 230.874 248.217 253.719 235.614 252.298C232.986 252.002 230.6 251.562 229.352 249.087C228.045 246.495 226.964 244.239 226.834 241.295C226.674 237.678 228.113 235.971 231.038 234.34C232.063 233.767 229.859 236.085 229.664 236.309C228.379 237.785 232.74 235.985 234.406 235.616" stroke="#00ADB5" stroke-opacity="0.5" stroke-width="2" stroke-linecap="round" stroke-linejoin="round"/>
<path d="M263.802 227.02C257.427 227.616 248.429 228.825 247.401 236.799C246.843 241.124 253.274 241.65 256.066 243.123C260.862 245.655 264.501 253.91 259.121 257.542C255.38 260.069 252.551 258.726 248.911 258.978C245.215 259.235 247.789 257.872 249.98 257.499" stroke="#00ADB5" stroke-opacity="0.5" stroke-width="2" stroke-linecap="round" stroke-linejoin="round"/>
<path d="M298.343 30.6894C297.832 35.8087 297.52 40.9805 296.889 46.0877C296.828 46.5791 296.345 48.5189 296.917 46.9506C297.335 45.8039 297.2 44.6089 297.872 43.5215C298.797 42.0238 302.977 36.3187 304.941 36.8958C308.876 38.0524 304.904 45.3516 303.777 47.4432C303.389 48.1646 302.33 49.7293 302.878 50.5382C303.609 51.6167 304.961 47.6312 305.018 47.5093" stroke="#00ADB5" stroke-opacity="0.5" stroke-width="2" stroke-linecap="round" stroke-linejoin="round"/>
<path d="M313.884 34.051C313.418 36.3382 309.501 47.6275 313.275 49.4975C314.341 50.0252 316.697 49.0291 317.429 48.1703C318.192 47.2761 317.793 45.9069 317.71 44.869" stroke="#00ADB5" stroke-opacity="0.5" stroke-width="2" stroke-linecap="round" stroke-linejoin="round"/>
<path d="M306.119 34.2976C310.26 35.5292 314.519 36.3491 318.634 37.6197C319.605 37.9196 319.969 38.0555 320.492 38.922C321.305 40.2697 319.145 39.0386 318.772 38.6303" stroke="#00ADB5" stroke-opacity="0.5" stroke-width="2" stroke-linecap="round" stroke-linejoin="round"/>
<path d="M324.847 42.2996C323.896 45.1693 323.003 48.075 321.918 50.8989C321.702 51.4603 321.669 51.6656 321.553 51.2368C321.441 50.8237 321.332 50.5803 321.516 50.144C322.491 47.8255 324.766 44.4932 326.912 43.1982C329.229 41.7997 327.965 46.4972 327.653 47.4481C327.304 48.516 326.362 51.4431 327.433 48.6108C328.07 46.9252 329.533 42.7361 331.999 43.3458C333.492 43.715 333.147 45.734 332.883 46.8016C332.396 48.7704 331.913 50.7259 331.424 52.7011C330.711 55.5876 331.096 54.0288 331.618 51.9196" stroke="#00ADB5" stroke-opacity="0.5" stroke-width="2" stroke-linecap="round" stroke-linejoin="round"/>
<path d="M343.255 36.0165C341.768 41.3674 339.942 46.7029 338.66 52.1094C338.51 52.7435 338.182 55.0913 339.192 55.3709C340.151 55.6366 343.94 53.36 343.014 52.5707" stroke="#00ADB5" stroke-opacity="0.5" stroke-width="2" stroke-linecap="round" stroke-linejoin="round"/>
<path d="M85.7073 254.279C82.1893 260.963 78.6825 267.652 75.1549 274.33C74.1495 276.234 72.165 282.058 71.9193 279.919C71.5862 277.019 73.358 272.959 74.1098 270.242C75.1708 266.407 77.3313 258.745 82.7149 258.773C86.7786 258.795 91.3472 264.754 91.9774 268.472C92.4223 271.097 93.7163 268.133 95.4724 267.341" stroke="#00ADB5" stroke-opacity="0.5" stroke-width="2" stroke-linecap="round" stroke-linejoin="round"/>
<path d="M96.6121 275.691C98.9762 281.189 102.461 290.484 109.638 285.37C112.935 283.021 111.297 278.999 108.041 277.722C100.064 274.592 90.0113 283.332 88.0218 290.516C86.0326 297.699 93.8849 299.901 99.2866 300.61C102.275 301.003 101.605 298.448 104.177 297.558" stroke="#00ADB5" stroke-opacity="0.5" stroke-width="2" stroke-linecap="round" stroke-linejoin="round"/>
<path d="M116.48 294.701C110.283 292.113 102.073 289.806 98.5804 297.726C96.8971 301.543 104.431 301.991 106.665 301.886C110.933 301.685 120.436 291.806 117.235 294.635C114.425 297.117 111.581 300.047 110.426 303.714C109.68 306.081 110.537 311.313 113.282 307.7" stroke="#00ADB5" stroke-opacity="0.5" stroke-width="2" stroke-linecap="round" stroke-linejoin="round"/>
<path d="M140.58 299.656C131.585 300.519 120.925 300.97 117.734 311.076C116.165 316.044 119.846 319.499 124.28 320.957C127.38 321.975 130.539 319.764 132.419 317.519" stroke="#00ADB5" stroke-opacity="0.5" stroke-width="2" stroke-linecap="round" stroke-linejoin="round"/>
<path d="M148.749 301.027C148.256 301.627 126.099 325.776 136.661 325.962C139.585 326.014 142.586 324.313 144.6 322.399" stroke="#00ADB5" stroke-opacity="0.5" stroke-width="2" stroke-linecap="round" stroke-linejoin="round"/>
<path d="M129.982 305.421C134.236 308.355 138.431 311.461 143.097 313.728C144.309 314.317 146.328 314.598 147.163 315.82C147.631 316.506 146.894 314.876 146.812 314.639" stroke="#00ADB5" stroke-opacity="0.5" stroke-width="2" stroke-linecap="round" stroke-linejoin="round"/>
<path d="M134.054 95.0031C135.599 96.4432 147.786 105.149 148.164 97.4269C148.199 96.7263 147.306 96.5077 147.011 95.9107C146.253 94.3723 144.996 93.3576 144.312 92.5507" stroke="#00ADB5" stroke-opacity="0.5" stroke-width="2" stroke-linecap="round" stroke-linejoin="round"/>
<path d="M146.087 73.9537C149.206 75.9389 171.439 89.077 159.794 94.8195C157.979 95.7145 156.382 93.6287 155.417 92.2867C153.242 89.2613 159.578 84.9694 159.842 81.7648" stroke="#00ADB5" stroke-opacity="0.5" stroke-width="2" stroke-linecap="round" stroke-linejoin="round"/>
<path d="M164.334 63.3917C162.518 64.8747 152.102 74.086 160.293 75.867C164.817 76.8507 169.093 72.3424 172.532 70.0921C178.071 66.467 179.241 73.4427 177.718 77.3799C176.786 79.7912 169.004 87.682 171.134 81.4088" stroke="#00ADB5" stroke-opacity="0.5" stroke-width="2" stroke-linecap="round" stroke-linejoin="round"/>
<path d="M225.811 406.238C218.881 409.725 209.801 416.084 217.292 424.522C220.886 428.569 227.52 426.911 232.252 426.444C233.581 426.312 237.25 427.591 236.251 426.703C234.091 424.783 232.536 424.907 231.888 421.665" stroke="#00ADB5" stroke-opacity="0.5" stroke-width="2" stroke-linecap="round" stroke-linejoin="round"/>
<path d="M246.38 403.901C246.38 409.009 246.332 412.666 251.574 414.653C253.838 415.511 255.259 416.298 255.859 418.834C256.538 421.701 254.539 425.853 252.171 427.456C249.245 429.439 245.569 430.13 242.277 428.781C239.457 427.625 242.574 426.259 244.043 424.937" stroke="#00ADB5" stroke-opacity="0.5" stroke-width="2" stroke-linecap="round" stroke-linejoin="round"/>
<path d="M269.286 398.291C268.366 401.854 264.222 411.381 267.909 415.068C269.398 416.557 272.281 415.73 274.116 416.159C275.943 416.586 277.51 417.984 278.635 419.431C280.417 421.723 278.721 425.195 276.662 426.807C273.467 429.308 268.902 428.21 265.182 428.21C263.152 428.21 264.539 428.066 265.546 426.807" stroke="#00ADB5" stroke-opacity="0.5" stroke-width="2" stroke-linecap="round" stroke-linejoin="round"/>
<path d="M261.227 353.957C264.828 352.583 271.508 350.396 274.991 347.932C278.668 345.331 274.819 344.583 272.862 345.205C269.547 346.258 267.545 349.73 266.421 352.788C263.463 360.841 272.873 369.943 280.783 369.02C288.093 368.167 289.113 364.588 290.21 359.099" stroke="#00ADB5" stroke-opacity="0.5" stroke-width="2" stroke-linecap="round" stroke-linejoin="round"/>
<path d="M294.885 349.75C294.066 351.083 286.286 367.102 284.133 359.567" stroke="#00ADB5" stroke-opacity="0.5" stroke-width="2" stroke-linecap="round" stroke-linejoin="round"/>
<path d="M280.394 350.217C283.676 354.605 291.606 370.293 299.56 369.851C300.713 369.787 299.184 365.346 299.093 364.709" stroke="#00ADB5" stroke-opacity="0.5" stroke-width="2" stroke-linecap="round" stroke-linejoin="round"/>
<path d="M301.897 350.217C303.71 360.84 307.343 392.945 305.274 382.369C304.207 376.916 294.464 347.408 303.04 348.633C306.76 349.165 316.254 354.591 313.766 359.567C312.367 362.365 303.697 363.342 307.507 361.437" stroke="#00ADB5" stroke-opacity="0.5" stroke-width="2" stroke-linecap="round" stroke-linejoin="round"/>
<path d="M319.662 357.697C320.817 363.707 321.929 369.713 322.934 375.747C323.107 376.78 322.875 375.928 322.571 375.357C320.658 371.772 318.04 365.382 318.13 361.359C318.214 357.548 323.458 354.948 326.207 357.697" stroke="#00ADB5" stroke-opacity="0.5" stroke-width="2" stroke-linecap="round" stroke-linejoin="round"/>
<path d="M334.621 364.709C334.5 369.109 337.691 384.51 345.269 380.032C346.355 379.391 349.034 377.823 349.113 376.396C349.155 375.635 347.771 375.461 347.243 375.461C345.854 375.461 345.507 373.739 344.906 372.656" stroke="#00ADB5" stroke-opacity="0.5" stroke-width="2" stroke-linecap="round" stroke-linejoin="round"/>
<path d="M332.284 366.112C336.378 361.876 340.984 356.04 344.62 363.592C345.684 365.803 345.314 368.468 344.438 370.683C343.024 374.26 337.958 375.672 339.296 370.319" stroke="#00ADB5" stroke-opacity="0.5" stroke-width="2" stroke-linecap="round" stroke-linejoin="round"/>
<path d="M357.527 357.697C360.732 362.817 373.69 376.618 365.189 382.915C362.469 384.929 360.694 384.92 357.631 384.811C353.308 384.656 355.592 383.56 357.06 380.136" stroke="#00ADB5" stroke-opacity="0.5" stroke-width="2" stroke-linecap="round" stroke-linejoin="round"/>
<path d="M377.162 355.827C376.194 356.998 363.694 369.083 371.292 370.371C374.093 370.846 376.667 369.149 379.239 370.864C383.881 373.959 382.781 378.153 378.512 380.785C376.379 382.101 373.998 382.791 371.76 383.876C370.495 384.489 371.843 382.713 372.019 382.006" stroke="#00ADB5" stroke-opacity="0.5" stroke-width="2" stroke-linecap="round" stroke-linejoin="round"/>
<path d="M366.41 350.685C365.324 351.482 353.637 357.968 355.294 361.904C357.385 366.87 358.076 360.757 358.462 358.632" stroke="#00ADB5" stroke-opacity="0.5" stroke-width="2" stroke-linecap="round" stroke-linejoin="round"/>
<path d="M79.0886 197.765C81.1707 192.856 80.3179 188.578 80.3179 183.49C80.3179 182.501 80.1383 179.486 81.1784 178.946C82.8187 178.095 84.3516 177.527 86.2869 177.527C87.5735 177.527 88.8663 177.564 90.1524 177.527C91.4386 177.49 92.6846 176.967 93.9564 176.811C96.3226 176.521 98.7838 176.925 101.12 176.925C102.976 176.925 104.895 177.166 106.68 177.166C106.996 177.166 108.288 177.317 108.496 177.501C109.133 178.062 108.951 178.963 109.452 179.455" stroke="#00ADB5" stroke-opacity="0.5" stroke-linecap="round" stroke-linejoin="round"/>
<path d="M109.33 179.89C109.411 181.339 109.441 183.372 110.037 184.787C110.424 185.705 110.116 186.926 110.194 187.903C110.344 189.778 110.065 191.606 110.065 193.426C110.065 195.867 110.187 198.276 110.187 200.704C110.187 202.787 108.151 202.439 106.541 202.146C105.15 201.893 103.284 202.4 101.834 202.418C99.0377 202.452 96.2281 202.663 93.4271 202.663C91.0879 202.663 89.3508 201.983 87.1966 201.166C86.0463 200.73 85.3509 200.826 84.1153 200.826C82.9451 200.826 81.9827 200.643 80.8096 201.01C80.1232 201.224 78.8941 201.039 78.5037 200.336C78.0356 199.494 78.9663 199.128 78.9663 198.439C78.9663 197.86 78.8935 196.204 79.0887 197.765" stroke="#00ADB5" stroke-opacity="0.5" stroke-linecap="round" stroke-linejoin="round"/>
<path d="M93.0463 183.073C93.0463 183.073 93.5361 183.318 94.0258 183.808C94.5155 184.175 95.5464 183.991 96.4133 183.991C96.8694 183.991 97.3511 183.636 97.7601 183.454C98.5886 183.086 98.0944 183.779 97.8961 184.175C97.6766 184.614 97.9273 185.43 98.3246 185.706C98.9802 186.159 99.6288 185.768 100.27 185.447C100.536 185.314 100.463 185.252 100.545 185.434C100.657 185.679 100.637 186.036 100.637 186.304C100.637 186.915 100.597 187.929 100.27 188.46C99.8395 189.16 99.4045 189.613 98.7123 190.127C98.0285 190.635 97.125 191.521 96.216 191.521C94.4397 191.521 92.5544 191.134 91.6655 189.406C91.2888 188.673 90.5976 188.073 90.5976 187.236C90.5976 186.537 90.3664 185.7 90.5976 185.032C90.8779 184.223 91.5771 183.454 91.3322 183.454C91.4571 183.49 92.5566 182.828 93.0463 183.073Z" stroke="#00ADB5" stroke-opacity="0.5" stroke-linecap="round" stroke-linejoin="round"/>
<path d="M95.0667 182.645C95.7555 182.39 97.3287 181.856 97.699 181.022C97.9852 180.379 97.0393 180.257 96.5359 180.257C95.9254 180.257 95.2019 181.101 95.0395 181.635C94.9492 181.931 94.8633 182.235 94.7742 182.536C94.7312 182.681 94.7886 182.786 94.8184 182.92C94.8411 183.022 95.7752 182.532 95.7401 182.391" stroke="#00ADB5" stroke-opacity="0.5" stroke-linecap="round" stroke-linejoin="round"/>
<path d="M107.188 196.421L80.3302 197.011C77.4627 197.074 75.1709 199.417 75.1709 202.285C75.1709 205.198 77.5327 207.56 80.4461 207.56H107.311C110.387 207.56 112.881 205.066 112.881 201.99C112.881 198.866 110.312 196.353 107.188 196.421Z" stroke="#00ADB5" stroke-opacity="0.5"/>
<path d="M86.2678 196.863C86.6745 197.494 87.0255 198.25 87.4921 198.834C87.7268 199.127 87.6891 199.067 88.144 198.899C88.9035 198.617 89.764 198.819 90.5563 198.819C91.2519 198.819 92.0607 198.456 92.7368 198.638C93.52 198.849 94.4434 198.446 95.2143 198.428C96.1432 198.406 97.0287 198.493 97.9526 198.493C98.5096 198.493 99.0525 198.167 99.568 198.167C99.8671 198.167 100.72 198.404 100.742 197.856C100.752 197.588 100.872 197.329 100.872 197.059C100.872 196.693 100.653 196.852 100.285 196.668" stroke="#00ADB5" stroke-opacity="0.5" stroke-linecap="round" stroke-linejoin="round"/>
<path d="M218.903 63.0295C219.406 62.3904 220.369 61.2077 219.019 60.9986C218.714 60.9513 218.429 60.7718 218.129 60.9076C217.206 61.3258 216.349 62.2466 216.349 63.3413C216.349 65.0899 218.267 65.4686 219.66 65.4459C222.01 65.4078 222.725 63.1177 223.556 61.2627C224.394 59.3889 225.326 57.5455 226.196 55.6851C227.18 53.58 228.795 51.9031 229.816 49.8173C230.254 48.9229 230.826 48.1352 231.39 47.3186C232.265 46.0518 232.888 44.7738 233.514 43.3692C234.027 42.2168 234.596 41.1645 235.225 40.0737C235.48 39.6327 235.384 38.9569 235.87 39.4285C236.239 39.7865 236.827 40.0217 237.324 40.1127C239.496 40.5105 241.493 40.9315 243.73 40.7536C245.993 40.5737 248.254 40.2496 250.481 39.8182C251.238 39.6716 250.915 39.8481 250.558 40.3076C249.953 41.0869 249.436 41.9127 248.856 42.7023C248.099 43.7321 247.833 44.9722 247.385 46.1494C246.893 47.4435 246.307 48.6795 245.837 49.9948C244.929 52.5368 243.603 54.8551 241.963 56.9885C241.013 58.225 239.839 60.3845 238.059 60.297C235.305 60.1617 237.164 54.7402 238.48 53.6801C239.189 53.1094 239.963 53.7238 240.05 54.4899C240.168 55.5425 239.807 56.985 238.786 57.4995C237.707 58.0424 236.881 57.9773 237.711 56.5772C238.213 55.73 238.511 56.6623 238.717 56.248" stroke="#00ADB5" stroke-opacity="0.5" stroke-width="2" stroke-linecap="round" stroke-linejoin="round"/>
<path d="M426.464 251.891C426.967 251.251 427.93 250.069 426.58 249.86C426.275 249.812 425.989 249.633 425.69 249.769C424.767 250.187 423.91 251.108 423.91 252.202C423.91 253.951 425.827 254.33 427.221 254.307C429.571 254.269 430.286 251.979 431.116 250.124C431.955 248.25 432.886 246.406 433.756 244.546C434.741 242.441 436.355 240.764 437.377 238.678C437.815 237.784 438.387 236.996 438.95 236.18C439.825 234.913 440.449 233.635 441.075 232.23C441.588 231.078 442.157 230.026 442.786 228.935C443.04 228.494 442.945 227.818 443.431 228.29C443.8 228.648 444.387 228.883 444.884 228.974C447.056 229.372 449.054 229.793 451.291 229.615C453.553 229.435 455.815 229.111 458.042 228.679C458.799 228.533 458.476 228.709 458.119 229.169C457.513 229.948 456.996 230.774 456.416 231.563C455.66 232.593 455.393 233.833 454.946 235.01C454.454 236.304 453.868 237.541 453.398 238.856C452.489 241.398 451.164 243.716 449.524 245.85C448.573 247.086 447.399 249.245 445.619 249.158C442.865 249.023 444.725 243.601 446.041 242.541C446.749 241.97 447.524 242.585 447.61 243.351C447.729 244.404 447.368 245.846 446.346 246.361C445.268 246.903 444.442 246.838 445.271 245.438C445.773 244.591 446.072 245.523 446.277 245.109" stroke="#00ADB5" stroke-opacity="0.5" stroke-width="2" stroke-linecap="round" stroke-linejoin="round"/>
<path d="M404.27 141.728C401.966 137.552 402.102 136.359 402.627 132.155C402.917 129.84 403.027 127.578 403.613 125.3C404.66 121.228 405 115.743 401.721 112.464C395.269 106.012 383.253 115.188 386.891 123.374C388.276 126.49 390.668 128.797 392.397 131.735C393.09 132.914 393.479 134.192 394.38 135.293C395.244 136.349 396.317 137.664 396.317 138.975C396.317 140.083 395.987 141.519 396.77 142.498C397.852 143.851 397.468 143.155 399.07 143.155C400.171 143.155 401.796 142.28 402.684 141.569C403.318 141.062 403.658 142.529 403.658 141.116C403.658 139.903 403.268 140.912 404.066 140.912" stroke="#00ADB5" stroke-opacity="0.5" stroke-linecap="round" stroke-linejoin="round"/>
<path d="M399.172 145.603C401.353 144.952 407.389 143.5 405.992 145.297C404.306 147.464 403.585 146.378 401.517 146.838C400.459 147.073 399.428 150.337 400.599 150.406C402.272 150.505 403.382 148.254 405.086 148.254C406.636 148.254 406.525 150.295 405.595 151.018C404.367 151.973 402.955 150.947 402.129 152.434C400.823 154.785 404.39 154.403 405.403 153.85C406.423 153.294 407.394 152.425 408.145 151.924" stroke="#00ADB5" stroke-opacity="0.5" stroke-linecap="round" stroke-linejoin="round"/>
<path d="M404.27 141.065C404.243 141.243 404.214 142.442 403.735 142.442C403.477 142.442 403.359 142.285 403.123 142.416C402.846 142.57 402.586 142.932 402.322 143.144C402.088 143.331 401.395 143.308 401.262 143.541C401.045 143.921 400.604 144.129 400.192 144.175C399.658 144.234 399.46 144.503 398.892 144.376C398.718 144.338 398.7 144.226 398.538 144.226C398.286 144.226 398.178 144.346 397.988 144.135C397.778 143.902 397.435 143.793 397.334 143.439C397.196 142.957 396.692 142.704 397.439 143.003" stroke="#00ADB5" stroke-opacity="0.5" stroke-linecap="round" stroke-linejoin="round"/>
<path d="M394.431 120.876C395.343 120.881 396.097 120.94 396.407 121.907C396.619 122.565 396.623 123.212 396.623 123.896C396.623 124.56 396.215 125.094 396.215 125.72C396.215 126.546 396.876 126.411 397.436 126.663C397.964 126.901 398.347 127.099 398.634 127.631C398.917 128.158 398.703 129.177 398.665 129.75C398.632 130.243 398.398 131.291 398.738 131.707C398.924 131.934 399.936 132.283 399.274 131.787" stroke="#00ADB5" stroke-opacity="0.5" stroke-linecap="round" stroke-linejoin="round"/>
<path d="M386.732 130.104C386.002 130.589 385.257 130.996 384.441 131.302C384.098 131.431 383.648 131.66 383.724 131.124" stroke="#00ADB5" stroke-opacity="0.5" stroke-linecap="round" stroke-linejoin="round"/>
<path d="M384.081 123.069C382.787 123.38 381.501 123.731 380.218 124.077C380.005 124.134 380.494 123.595 380.513 123.578" stroke="#00ADB5" stroke-opacity="0.5" stroke-linecap="round" stroke-linejoin="round"/>
<path d="M383.724 116.39C382.384 116.195 381.047 115.953 379.714 115.716C379.1 115.606 378.84 115.687 379.187 115.166" stroke="#00ADB5" stroke-opacity="0.5" stroke-linecap="round" stroke-linejoin="round"/>
<path d="M390.964 109.303C389.905 109.117 388.987 108.938 388.03 108.459C387.582 108.235 387.15 107.966 386.681 107.785C386.124 107.57 386.113 107.636 386.732 107.264" stroke="#00ADB5" stroke-opacity="0.5" stroke-linecap="round" stroke-linejoin="round"/>
<path d="M400.192 104.715C400.346 105.797 400.295 106.445 399.858 107.426C399.622 107.954 399.422 108.622 399.305 109.193C399.265 109.389 399.243 109.501 399.11 109.649C399.06 109.704 399.243 109.048 399.274 108.947" stroke="#00ADB5" stroke-opacity="0.5" stroke-linecap="round" stroke-linejoin="round"/>
<path d="M407.992 109.048C407.653 110.175 407.171 111.256 406.882 112.385C406.735 112.956 406.827 112.991 407.074 112.413" stroke="#00ADB5" stroke-opacity="0.5" stroke-linecap="round" stroke-linejoin="round"/>
<path d="M411.255 117.155C410.096 118.157 409.146 119.402 408.247 120.633C408.134 120.787 408.004 120.842 407.878 120.967C407.594 121.251 408.085 120.609 408.145 120.519" stroke="#00ADB5" stroke-opacity="0.5" stroke-linecap="round" stroke-linejoin="round"/>
<path d="M151.667 219.42C153.362 227.056 155.27 234.709 156.391 242.46C157.018 246.79 155.643 240.542 155.472 239.658C155.101 237.746 154.677 236.052 154.677 234.097C154.677 230.162 154.572 226.182 154.28 222.243C154.076 219.485 150.688 211.273 154.97 218.124C159.336 225.11 162.418 232.833 165.381 240.453C165.79 241.503 166.356 242.498 166.803 243.505C167.048 244.055 162.465 239.577 160.698 238.613" stroke="#00ADB5" stroke-opacity="0.5" stroke-width="2" stroke-linecap="round" stroke-linejoin="round"/>
<path d="M149.032 236.355C153.924 234.403 164.712 230.72 167.848 225.232C169.162 222.933 168.906 223.997 165.214 224.689" stroke="#00ADB5" stroke-opacity="0.5" stroke-width="2" stroke-linecap="round" stroke-linejoin="round"/>
<path d="M163.709 210.765C167.484 218.239 170.219 226.198 171.256 234.494C171.352 235.263 171.531 236.107 172.072 236.648C172.172 236.748 170.261 233.171 169.73 232.215" stroke="#00ADB5" stroke-opacity="0.5" stroke-width="2" stroke-linecap="round" stroke-linejoin="round"/>
<path d="M163.709 210.388C166.636 212.142 177.39 218.62 170.378 222.745C169.763 223.107 169.041 223.441 168.601 224.02C167.669 225.246 167.557 225.606 168.225 223.936" stroke="#00ADB5" stroke-opacity="0.5" stroke-width="2" stroke-linecap="round" stroke-linejoin="round"/>
<path d="M173.493 206.625C174.74 215.075 176.88 224.358 176.88 232.968C176.88 234.869 176.562 231.349 176.127 230.334" stroke="#00ADB5" stroke-opacity="0.5" stroke-width="2" stroke-linecap="round" stroke-linejoin="round"/>
<path d="M182.149 221.678C184.215 227.837 185.277 231.466 179.222 233.261C177.153 233.874 179.653 230.868 180.183 230.501C181.995 229.247 183.799 225.21 181.772 223.184C180.966 222.377 179.037 223.396 178.469 222.431C177.633 221.009 179.507 218.316 180.643 217.622C183.911 215.626 183.5 218.439 182.149 217.539" stroke="#00ADB5" stroke-opacity="0.5" stroke-width="2" stroke-linecap="round" stroke-linejoin="round"/>
<path d="M295.194 107.394C296.441 113.957 301.577 133.123 298.589 127.147C298.267 126.503 297.999 125.958 297.972 125.227C297.872 122.524 297.67 119.699 296.737 117.133C295.957 114.988 296.12 112.763 296.12 110.48C296.12 110.023 295.343 106.424 295.417 106.399C296.203 106.137 299.444 110.076 300.03 110.755C302.993 114.188 305.988 118.134 308.106 122.157C309.196 124.228 309.524 124.97 306.923 125.295" stroke="#00ADB5" stroke-opacity="0.5" stroke-width="2" stroke-linecap="round" stroke-linejoin="round"/>
<path d="M294.885 120.666C297.782 119.196 300.541 118.022 303.528 116.962" stroke="#00ADB5" stroke-opacity="0.5" stroke-width="2" stroke-linecap="round" stroke-linejoin="round"/>
<path d="M303.219 107.702C306.185 112.145 309.009 116.872 312.462 120.974C312.954 121.559 313.988 122.622 313.988 121.249C313.988 119.375 312.95 117.438 312.479 115.659C311.725 112.813 311.024 109.954 310.387 107.085C309.771 104.316 310.205 105.35 311.244 107.428C312.966 110.872 314.779 114.009 317.177 117.065C318.793 119.123 318.96 117.977 318.96 116.173C318.96 112.896 317.361 110.202 316.182 107.257C314.924 104.11 315.008 99.8157 313.576 96.9512C313.019 95.8371 312.942 99.3676 312.787 100.604" stroke="#00ADB5" stroke-opacity="0.5" stroke-width="2" stroke-linecap="round" stroke-linejoin="round"/>
<path d="M319.886 96.5911C319.965 96.9536 321.114 105.94 323.144 104.925C324.033 104.48 324.251 103.119 325.167 102.661C326.651 101.919 328.255 103.233 328.837 104.513C330.375 107.897 328.604 111.817 325.819 113.875C321.96 116.728 323.281 111.593 323.281 110.172" stroke="#00ADB5" stroke-opacity="0.5" stroke-width="2" stroke-linecap="round" stroke-linejoin="round"/>
<path d="M321.738 95.9738C321.182 97.4916 320.173 104.539 319.869 101.804C319.681 100.116 320.014 98.832 320.195 97.2083C320.623 93.3567 323.57 96.4551 322.355 94.4305" stroke="#00ADB5" stroke-opacity="0.5" stroke-width="2" stroke-linecap="round" stroke-linejoin="round"/>
<path d="M301.154 298.705C301.051 298.517 296.599 290.848 296.984 290.628C297.518 290.323 298.516 290.62 299.144 290.384C301.003 289.687 302.499 288.249 304.028 287.059C305.637 285.808 307.84 295.624 308.33 297.691C308.922 300.192 310.465 303.517 307.578 304.961C304.976 306.262 301.553 305.869 298.712 305.806C294.078 305.703 290.875 298.096 290.334 294.31C289.94 291.553 286.123 282.705 290.222 280.935C291.319 280.461 293.183 280.785 294.373 280.785C296.076 280.785 297.563 279.771 299.295 279.771C302.05 279.771 302.884 283.213 300.478 279.432" stroke="#00ADB5" stroke-opacity="0.5" stroke-width="2" stroke-linecap="round" stroke-linejoin="round"/>
<path d="M308.931 282.137C309.411 283.887 310.956 293.605 315.017 291.116C315.79 290.643 316.352 289.495 316.632 288.674C317.38 286.486 317.538 284.658 315.862 282.983C314.607 281.727 312.182 279.164 310.358 279.094C305.835 278.92 309.826 283.987 309.269 283.152" stroke="#00ADB5" stroke-opacity="0.5" stroke-width="2" stroke-linecap="round" stroke-linejoin="round"/>
<path d="M309.607 266.584C312.947 271.864 317.986 277.671 320.014 283.753C320.272 284.528 320.281 285.056 320.765 285.782C321.495 286.877 321.84 288.465 322.531 286.796C323.531 284.378 325.81 282.233 327.603 280.372C329.813 278.076 330.116 278.756 326.175 278.756" stroke="#00ADB5" stroke-opacity="0.5" stroke-width="2" stroke-linecap="round" stroke-linejoin="round"/>
<path d="M332.937 264.893C332.518 265.841 326.148 278.446 332.299 275.582C333.522 275.012 334.771 274.125 334.609 272.67C334.453 271.267 333.282 270.165 332.674 268.951C332.331 268.264 330.959 264.957 331.435 265.908C332.847 268.732 334.743 273.762 336.845 275.863C339.292 278.311 340.759 275.739 338.347 274.361" stroke="#00ADB5" stroke-opacity="0.5" stroke-width="2" stroke-linecap="round" stroke-linejoin="round"/>
<path d="M336.657 266.246C346.069 281.174 334.16 264.424 336.901 261.493C339.554 258.657 342.689 264.104 343.682 265.832C345.413 268.844 347.116 276.658 344.434 268.613" stroke="#00ADB5" stroke-opacity="0.5" stroke-width="2" stroke-linecap="round" stroke-linejoin="round"/>
<path d="M348.491 253.397C348.331 253.961 343.283 268.167 347.063 266.847C348.67 266.286 350.283 265.016 351.139 263.56C352.128 261.878 352.589 259.573 351.872 257.718C351.383 256.453 350.855 255.101 350.181 253.923C348.581 251.123 352.894 259.776 354.183 262.733C356.07 267.062 360.617 282.24 349.9 279.226C345.225 277.911 349.627 270.641 349.167 270.641" stroke="#00ADB5" stroke-opacity="0.5" stroke-width="2" stroke-linecap="round" stroke-linejoin="round"/>
<path d="M215.414 183.537C217.094 183.076 218.527 182.61 219.708 181.281C220.174 180.757 220.237 180.088 220.476 179.453C220.785 178.628 220.4 177.574 220.136 176.782C219.925 176.149 221.078 175.794 221.49 175.767C222.198 175.721 222.739 176.172 223.419 176.212C224.237 176.26 225.108 176.521 225.675 177.159C226.06 177.592 226.575 177.694 227.001 178.069C227.404 178.425 227.723 179.047 228.015 179.503C228.86 180.823 229.099 182.363 229.345 183.873C229.463 184.597 229.534 185.385 229.412 186.116C229.266 186.99 229.421 187.829 229.076 188.666C228.838 189.245 228.457 190.01 227.915 190.352C227.358 190.702 226.841 190.829 226.699 191.555C226.401 193.074 227.164 194.561 226.871 196.093C226.61 197.453 224.811 197.661 223.7 197.879C222.933 198.029 221.538 198.264 220.798 197.862C219.421 197.114 218.423 196.177 217.402 194.986C216.497 193.929 216.154 192.385 216.035 191.035C215.913 189.657 215.911 188.161 215.942 186.766C215.963 185.842 216.232 184.913 216.32 183.99C216.392 183.236 216.631 183.175 216.244 184.141" stroke="#00ADB5" stroke-opacity="0.5" stroke-linecap="round" stroke-linejoin="round"/>
<path d="M225.151 176.669C225.719 175.205 226.343 173.742 226.778 172.232C226.974 171.554 227.021 170.835 227.265 170.173C227.548 169.403 227.689 168.533 227.81 167.728C227.897 167.151 227.94 166.129 228.468 165.766C228.854 165.5 229.074 164.894 229.487 164.575C230.018 164.165 230.772 163.784 231.148 163.237C231.517 162.7 231.912 161.59 231.601 160.968C231.428 160.623 231.452 160.251 231.282 159.912C231.061 159.469 230.863 159.111 230.695 158.633C230.549 158.214 230.088 157.378 230.624 157.081C231.934 156.353 232.025 157.499 232.431 158.545C232.641 159.085 232.673 159.744 232.867 160.306C233 160.69 233.236 160.412 233.417 160.633C233.688 160.965 233.702 161.381 233.907 161.74C234.215 162.278 233.854 163.369 233.698 163.895C233.409 164.87 233.111 165.752 232.683 166.688C231.58 169.099 229.781 171.129 228.548 173.465C228.079 174.354 227.703 175.249 227.475 176.233C227.345 176.792 226.963 177.323 226.963 177.914C226.963 178.453 226.83 178.729 227.114 177.876" stroke="#00ADB5" stroke-opacity="0.5" stroke-linecap="round" stroke-linejoin="round"/>
<path d="M231.039 158.477C230.078 158.625 229.029 158.681 228.171 159.111C228.053 159.17 228.236 159.016 228.322 159.006C229.472 158.87 230.729 157.844 231.777 157.345C232.556 156.974 233.622 156.138 234.511 156.138C234.769 156.138 233.656 156.854 233.53 156.968" stroke="#00ADB5" stroke-opacity="0.5" stroke-linecap="round" stroke-linejoin="round"/>
<path d="M230.057 160.138C231.127 159.516 232.99 158.842 233.773 157.798C233.849 157.697 233.905 157.56 234.016 157.496C234.405 157.274 233.718 157.522 233.605 157.572" stroke="#00ADB5" stroke-opacity="0.5" stroke-linecap="round" stroke-linejoin="round"/>
<path d="M230.812 161.119C232.096 160.628 234.442 160.191 235.148 158.779C235.25 158.575 235.024 158.628 234.888 158.628" stroke="#00ADB5" stroke-opacity="0.5" stroke-linecap="round" stroke-linejoin="round"/>
<path d="M232.171 160.968C232.089 162.699 232.107 164.46 231.119 165.942C230.637 166.665 230.303 167.146 230.133 167.992C229.952 168.897 229.754 169.653 229.341 170.479C228.933 171.294 228.455 171.961 228.053 172.744C227.845 173.149 227.332 173.54 227.433 174.027C227.483 174.273 227.361 174.493 227.282 174.723C227.046 175.404 226.605 176.005 226.191 176.593C225.911 176.993 225.914 177.71 226.284 176.971" stroke="#00ADB5" stroke-opacity="0.5" stroke-linecap="round" stroke-linejoin="round"/>
<path d="M226.057 174.933C226.738 175.08 227.774 175.536 228.472 175.536C228.485 175.536 227.879 174.804 227.793 174.706" stroke="#00ADB5" stroke-opacity="0.5" stroke-linecap="round" stroke-linejoin="round"/>
<path d="M226.51 171.838C227.473 172.249 228.438 172.657 229.395 173.083C229.619 173.183 229.606 173.198 229.529 173.121C229.363 172.955 229.223 172.776 229.076 172.593" stroke="#00ADB5" stroke-opacity="0.5" stroke-linecap="round" stroke-linejoin="round"/>
<path d="M227.416 169.8C228.576 170.161 229.735 170.549 230.909 170.865C231.041 170.9 231.224 170.971 231.098 170.84C230.845 170.578 230.553 170.347 230.284 170.102" stroke="#00ADB5" stroke-opacity="0.5" stroke-linecap="round" stroke-linejoin="round"/>
<path d="M228.02 167.233C229.341 167.879 230.656 168.575 232.012 169.15C232.235 169.244 232.309 169.314 232.264 169.137C232.201 168.898 232.109 168.672 232.02 168.441" stroke="#00ADB5" stroke-opacity="0.5" stroke-linecap="round" stroke-linejoin="round"/>
<path d="M229.68 165.422C229.8 165.48 233.455 167.462 233.152 166.705" stroke="#00ADB5" stroke-opacity="0.5" stroke-linecap="round" stroke-linejoin="round"/>
<path d="M230.435 164.214C231.538 164.473 232.652 164.71 233.756 164.893" stroke="#00ADB5" stroke-opacity="0.5" stroke-linecap="round" stroke-linejoin="round"/>
<path d="M231.643 163.006C232.146 163.031 232.649 163.055 233.152 163.082" stroke="#00ADB5" stroke-opacity="0.5" stroke-linecap="round" stroke-linejoin="round"/>
<path d="M221.679 185.651C221.154 185.859 217.924 186.663 217.905 187.555C217.897 187.903 217.905 188.253 217.947 188.599C218.077 189.674 218.825 190.237 219.742 190.75C220.907 191.403 222.162 191.423 223.432 191.052C224.639 190.699 225.424 189.364 224.941 188.217C224.841 187.979 225.188 187.931 224.962 187.655C224.743 187.387 224.599 187.543 224.245 187.614" stroke="#00ADB5" stroke-opacity="0.5" stroke-linecap="round" stroke-linejoin="round"/>
<path d="M220.094 188.444C220.695 186.924 221.444 185.406 221.792 183.802C221.884 183.382 221.996 183.028 222.224 182.648C222.706 181.846 223.129 180.99 223.415 180.099C223.686 179.253 223.704 178.419 224.061 177.591C224.188 177.296 224.95 176.411 224.623 176.82" stroke="#00ADB5" stroke-opacity="0.5" stroke-linecap="round" stroke-linejoin="round"/>
<path d="M226.057 177.574C225.777 179.323 225.356 180.996 225.059 182.724C224.894 183.682 224.623 184.482 224.623 185.492C224.623 186.213 224.88 186.815 224.715 187.538C224.525 188.371 224.354 187.961 224.019 187.387" stroke="#00ADB5" stroke-opacity="0.5" stroke-linecap="round" stroke-linejoin="round"/>
<path d="M225.302 177.574C224.777 178.666 223.641 180.461 223.641 181.839C223.641 182.623 223.692 183.455 223.637 184.25C223.572 185.196 222.834 186.422 222.392 187.236C222.245 187.506 222.054 187.715 221.964 188.008C221.852 188.374 221.932 188.396 221.679 187.991" stroke="#00ADB5" stroke-opacity="0.5" stroke-linecap="round" stroke-linejoin="round"/>
<path d="M219.867 186.859C221.153 187.778 223.422 189.655 225 188.033C225.246 187.78 225.602 187.24 225.738 186.917C225.925 186.477 225.321 186.851 224.925 186.934" stroke="#00ADB5" stroke-opacity="0.5" stroke-linecap="round" stroke-linejoin="round"/>
<path d="M221.377 185.5C222.11 185.477 223.592 185.675 224.304 185.307C224.328 185.295 224.249 185.316 224.229 185.332C224.158 185.389 224.013 185.297 223.944 185.274" stroke="#00ADB5" stroke-opacity="0.5" stroke-linecap="round" stroke-linejoin="round"/>
<path d="M222.208 182.707C222.745 182.85 224.692 183.679 224.774 182.783" stroke="#00ADB5" stroke-opacity="0.5" stroke-linecap="round" stroke-linejoin="round"/>
<path d="M223.113 180.443C223.78 180.878 226.487 182.894 226.057 180.745" stroke="#00ADB5" stroke-opacity="0.5" stroke-linecap="round" stroke-linejoin="round"/>
<path d="M223.868 179.386C224.547 179.562 225.227 179.738 225.906 179.914" stroke="#00ADB5" stroke-opacity="0.5" stroke-linecap="round" stroke-linejoin="round"/>
<path d="M227.189 179.386C228.029 180.177 229.706 182.019 229.755 183.403C229.796 184.533 229.755 185.624 229.755 186.766C229.755 187.597 229.914 188.484 229.831 189.274C229.722 190.311 228.129 190.324 228.51 191.543C228.637 191.95 228.526 192.19 228.883 192.482C229.191 192.734 229.415 193.026 229.529 193.426C229.795 194.358 229.264 195.2 228.623 195.841C228.222 196.243 227.7 197.05 227.227 197.313C226.993 197.443 226.514 197.351 226.245 197.351C225.997 197.351 225.494 197.513 225.268 197.615C224.937 197.765 224.515 197.5 224.094 197.653" stroke="#00ADB5" stroke-opacity="0.5" stroke-linecap="round" stroke-linejoin="round"/>
<path d="M215.414 183.764C215.718 184.775 215.945 185.616 216.454 186.481C216.663 186.837 216.635 187.16 216.542 187.576C216.435 188.059 216.082 189.193 216.358 189.689C216.782 190.452 216.773 191.26 216.773 192.105C216.773 192.919 218.045 193.273 218.463 193.69C219.083 194.31 218.814 195.101 219.834 195.371C220.057 195.43 220.406 195.434 220.58 195.577C220.713 195.685 220.868 195.956 221.042 195.988C221.401 196.053 221.883 195.982 222.207 196.126C222.479 196.247 222.677 196.421 222.925 196.558C223.197 196.71 223.571 196.539 223.868 196.688C224.883 197.196 224.43 196.713 223.717 196.143" stroke="#00ADB5" stroke-opacity="0.5" stroke-linecap="round" stroke-linejoin="round"/>
<path d="M140.298 145.853C138.281 148.434 129.62 158.761 137 161.098C139.29 161.823 142.27 160.156 144.739 160.397C148.229 160.737 150.191 163.704 151.05 166.786C152.039 170.334 146.583 176.643 149.206 178.55C153.698 181.817 160.167 176.293 163.88 180.68C165.983 183.166 163.771 186.779 165.074 180.914" stroke="#00ADB5" stroke-opacity="0.5" stroke-linecap="round" stroke-linejoin="round"/>
<path d="M241.593 105.65C243.537 108.226 248.164 114.028 249.904 117.337C251.385 120.153 249.518 120.04 247.93 118.921C246.031 117.583 246.297 114.737 246.839 112.766C248.669 106.112 260.513 99.9942 261.851 110.221C262.32 113.813 259.11 119.853 254.735 118.428C248.959 116.546 249.327 107.731 253.696 104.455C258.164 101.104 265.487 104.955 265.487 110.429C265.487 116.506 258.263 118.387 255.462 113.026C252.916 108.153 257.428 103.055 262.266 102.326C264.046 102.057 268.643 104.113 265.435 105.182" stroke="#00ADB5" stroke-opacity="0.5" stroke-linecap="round" stroke-linejoin="round"/>
<path d="M339.296 151.93C336.269 154.938 326.702 161.951 334.751 164.682C339.434 166.271 343.77 163.666 346.672 160.111C349.874 156.188 350.417 149.985 345.321 147.437C341.358 145.456 337.943 142.273 334.621 147.256" stroke="#00ADB5" stroke-opacity="0.5" stroke-linecap="round" stroke-linejoin="round"/>
<path d="M442.609 193.068C436.828 196.511 428.051 200.67 436.999 203.924C438.374 204.424 439.27 204.099 440.479 203.249C444.952 200.106 445.215 198.847 444.946 194.003C444.768 190.796 440.078 191.529 437.934 192.601C434.772 194.182 432.566 197.346 431.285 200.548C429.562 204.856 438.471 204.593 439.7 199.405C440.47 196.153 436.75 191.533 434.194 195.51C430.807 200.778 435.975 205.489 439.232 199.977C442.352 194.697 435.063 192.519 433.103 198.678C430.527 206.775 445.842 197.983 440.271 195.198C436.951 193.538 431.344 204.081 437.466 201.457C444.901 198.271 436.583 193.575 436.583 201.015C436.583 207.053 446.569 198.291 440.064 195.925C438.576 195.384 437.108 200.137 438.168 201.197C440.011 203.04 443.214 198.267 443.05 196.548C442.348 189.171 435.126 207.927 443.725 199.327C445.69 197.363 445.609 193.813 442.349 195.899C440.425 197.13 439.208 202.357 442.842 201.145C446.333 199.982 446.332 193.516 442.583 195.016C440.294 195.932 439.465 199.171 436.999 198.678" stroke="#00ADB5" stroke-opacity="0.5" stroke-linecap="round" stroke-linejoin="round"/>
<path d="M392.121 241.218C391.156 242.284 375.753 261.289 383.498 251.607C385.27 249.393 386.898 247.214 389.316 245.66C390.807 244.701 392.243 244.109 393.523 242.829C394.923 241.429 392.938 241.521 392.614 244.439C392.332 246.98 392.548 258.073 392.121 258.048C389.233 257.878 387.34 255.036 384.667 254.1C383.235 253.599 378.989 254.321 380.174 253.373C383.069 251.057 391.938 244.414 389.316 247.036C387.33 249.022 383.247 256.487 384.641 254.048C385.632 252.314 388.312 246.662 387.914 247.607C387.092 249.554 385.661 252.889 385.784 255.035C385.9 257.072 389.947 252.059 390.199 251.555C392.075 247.804 388.194 256.24 389.576 254.23C390.82 252.419 395.028 247.817 392.017 252.334C391.358 253.323 395.137 248.762 394.458 249.737C394.261 250.02 392.549 252.893 393.549 251.893C397.133 248.308 391.852 252.035 391.186 251.036" stroke="#00ADB5" stroke-opacity="0.5" stroke-linecap="round" stroke-linejoin="round"/>
<path d="M360.8 318.82C362.436 316.489 371.787 306.209 364.098 305.756C362.799 305.68 360.119 305.258 359.034 306.146C356.453 308.257 357.572 313.952 361.059 314.587C365.684 315.427 370.018 309.103 365.007 306.665C359.772 304.118 347.414 314.348 352.749 318.56C363.252 326.852 372.751 302.755 359.164 306.224C346.84 309.37 357.697 322.065 363.293 313.885C369.285 305.128 350.809 305.053 354.073 314.846C355.683 319.676 360.967 317.345 361.917 313.444C363.308 307.724 357.619 310.086 357.527 314.041C357.429 318.28 363.96 310.61 360.047 310.951C357.219 311.197 356.94 315.08 354.723 315.08" stroke="#00ADB5" stroke-opacity="0.5" stroke-linecap="round" stroke-linejoin="round"/>
<path d="M174.744 274.877C175.688 279.16 177.549 292.119 177.549 287.733C177.549 284.705 175.236 281.879 174.77 278.85C174.607 277.792 174.943 274.662 174.043 273.942C173.427 273.449 179.248 277.98 180.795 278.85C183.618 280.438 185.642 283.405 188.093 280.253C189.27 278.74 192.732 278.531 193.209 278.149C196.671 275.38 196.353 271.247 197.157 267.631C197.443 266.341 196.715 272.035 196.715 273.708C196.715 275.849 197.102 278.684 197.676 280.694C198.492 283.55 198.165 275.492 197.39 273.942C196.132 271.424 196.248 269.19 196.248 266.462C196.248 265.385 204.062 278.885 202.689 279.915C202.114 280.346 194.462 278.235 192.144 278.98C190.148 279.622 188.324 280.371 186.431 281.318C185.913 281.577 185.059 282.519 185.392 282.253C186.579 281.303 190.21 278.707 188.768 279.188C186.787 279.848 184.842 281.765 183.054 282.824C179.685 284.821 178.595 284.542 177.185 287.966C176.982 288.46 179.497 288.397 179.99 288.538C183.528 289.549 185.751 286.793 188.872 285.525C192.9 283.889 197.532 280.528 201.857 280.019C205.123 279.635 200.158 278.49 199.988 278.149" stroke="#00ADB5" stroke-opacity="0.5" stroke-linecap="round" stroke-linejoin="round"/>
<path d="M353.32 94.898C362.13 92.0738 376.399 88.8257 384.277 82.38C385.707 81.2104 387.921 80.0893 387.42 77.8351C385.538 69.3668 381.443 67.3807 373.37 68.2778C368.891 68.7753 364.593 72.9061 360.436 74.5887C356.156 76.321 351.874 78.5969 347.97 81.0815C344.018 83.5961 346.308 84.8417 346.308 89.1844C346.308 91.5725 347.734 94.898 350.281 94.898C351.442 94.898 354.77 93.9631 351.476 93.9631C348.891 93.9631 344.878 94.3549 342.568 93.132C340.804 92.1982 344.286 90.3595 345.113 90.2492C348.068 89.8553 341.727 92.7455 341.088 92.9502C339.772 93.3713 345.836 88.776 342.464 89.8597C338.809 91.0344 344.233 87.8843 345.373 87.3145C346.659 86.6714 345.537 87.6896 345.84 87.1587C346.326 86.3093 349.135 83.1885 346.594 85.7303C345.743 86.5812 348.514 84.2789 349.45 83.5227C351.214 82.0986 348.976 84.2593 348.541 84.6135C346.536 86.2457 346.066 84.9287 344.438 85.6524C343.757 85.9549 342.101 86.9582 342.101 85.7822C342.101 83.7533 349.26 82.829 350.567 82.7696C358.574 82.4056 364.178 78.8735 371.552 77.03C375.1 76.1429 378.978 74.8652 382.304 73.2902C384.77 72.122 389.71 68.4647 392.328 69.2127C393.357 69.5067 377.483 78.7431 382.044 75.7314C385.816 73.2402 390.143 71.4908 384.485 76.173C379.953 79.9239 387.926 75.5548 388.563 75.8094C389.706 76.2666 381.524 80.9397 387.758 78.0688C390.142 76.9709 392.121 76.9166 392.121 74.329C392.121 70.8165 393.082 66.6534 388.615 68.2778C383.46 70.1522 379.323 74.1587 373.993 75.7314C370.319 76.8157 366.739 78.1848 363.137 79.4713C358.957 80.964 351.392 82.6332 348.411 86.2757C346.823 88.2169 343.995 95.7821 349.84 92.5087C355.202 89.5058 356.056 83.4304 358.93 78.6402C360.357 76.2609 356.442 83.6655 355.865 86.3796C355.202 89.5011 358.139 93.0933 361.501 92.5087C365.188 91.8675 369.067 86.7754 370.383 83.6786C376.709 68.7937 365.234 83.2306 368.487 86.4834C371.939 89.9355 377.2 80.7907 377.889 78.5363C378.719 75.82 379.206 72.4718 380.2 69.888C381.489 66.5369 373.259 70.3111 372.487 70.6931C368.207 72.8084 365.218 75.6302 362.306 79.3674C361.252 80.7201 357.021 87.0874 359.917 88.5351C363.797 90.4754 368.561 84.4448 368.669 81.3152C369.034 70.7139 360.306 76.1471 355.034 80.3023C351.777 82.87 354.607 88.0017 355.19 87.4184" stroke="#00ADB5" stroke-opacity="0.5" stroke-linecap="round" stroke-linejoin="round"/>
<path d="M235.048 348.271C234.845 348.433 227.153 355.068 227.153 353.179C227.153 352.073 228.004 350.89 228.763 350.167C230.264 348.738 236.19 347.638 234.763 351.128C233.805 353.468 229.893 356.917 228.789 352.504C228.331 350.671 231.477 346.994 233.386 348.557C235.492 350.28 230.965 352.475 229.543 351.699C227.002 350.313 230.053 345.38 232.503 346.401C235.066 347.469 231.542 350.388 230.374 350.972C227.643 352.337 228.025 350.13 226.634 348.738" stroke="#00ADB5" stroke-opacity="0.5" stroke-linecap="round" stroke-linejoin="round"/>
<path d="M108.362 347.803C111.057 352.244 116.189 356.851 110.959 360.893C109.61 361.935 101.652 366.103 102.129 361.256C102.709 355.354 111.505 355.223 112.05 349.933C112.588 344.702 100.094 346.673 97.2464 343.129C95.4623 340.909 94.0236 335.989 94.4415 333.156C94.6043 332.053 97.4019 329.911 97.1165 331.909C96.5941 335.567 84.8014 344.935 91.7925 348.011C96.4797 350.074 97.6889 344.852 101.142 343.596C108.255 341.01 97.61 360.193 97.61 355.283" stroke="#00ADB5" stroke-opacity="0.5" stroke-linecap="round" stroke-linejoin="round"/>
<path d="M337.426 408.576C335.261 413.699 330.881 429.486 330.881 423.924C330.881 423.057 331.049 422.372 331.349 421.561C332.756 417.753 334.385 414.208 336.751 410.861C338.042 409.034 339.58 403.684 341.425 407.744C342.286 409.639 344.75 414.913 343.711 416.99C342.407 419.598 338.36 421.094 335.66 421.197C334.957 421.224 327.583 422.193 329.972 420.003C332.78 417.429 335.498 409.599 339.737 409.069C340.392 408.987 341.759 409.425 342.334 409.744C343.347 410.307 342.114 411.323 341.633 412.108C341.057 413.048 336.5 419.405 336.491 419.12C336.362 414.86 340.732 408.675 343.088 405.459C343.932 404.306 339.438 412.133 338.413 413.9C337.619 415.266 338.655 418.171 335.089 417.458" stroke="#00ADB5" stroke-opacity="0.5" stroke-linecap="round" stroke-linejoin="round"/>
<path d="M192.508 32.7235C190.422 40.883 188.564 48.6573 187.807 56.9804C187.731 57.8129 187.205 58.3511 187.729 59.0061C188.509 59.9808 190.572 53.7832 191.365 52.1238C193.881 46.8641 196.715 44.7884 196.715 38.3332C196.715 37.4018 196.715 32.0407 196.715 35.5803C196.715 38.5853 197.285 41.5554 197.079 44.5662C196.923 46.842 194.739 52.9836 196.352 51.3706C198.841 48.881 196.847 36.3985 192.949 36.0737C187.63 35.6304 185.065 47.1606 184.457 50.7473C183.75 54.9204 186.692 56.6674 189.937 53.4223C194.366 48.993 195.327 39.8869 191.521 34.6973C186.293 27.5676 182.862 40.4319 182.431 43.5793C181.457 50.6989 185.434 52.9804 190.144 47.9165C191.877 46.054 195.37 42.8335 194.637 39.9434C193.663 36.0991 187.981 39.8321 186.846 41.5017C185.238 43.8691 185.259 49.7659 187.859 51.4485C190.287 53.0196 192.65 46.5097 192.378 44.8779C191.225 37.9574 178.18 48.9434 184.665 52.877C190.309 56.3005 194.05 40.9842 187.106 42.8781C185.172 43.4056 180.579 48.6177 184.561 48.6177" stroke="#00ADB5" stroke-opacity="0.5" stroke-linecap="round" stroke-linejoin="round"/>
<path d="M68.6261 165.955C66.5254 171.907 65.0131 175.705 59.6921 179.044C58.3561 179.882 56.5905 181.365 56.3159 183.043C55.729 186.63 61.3857 190.582 64.6006 189.51C71.3745 187.252 61.1241 180.548 60.0297 178.602C58.1243 175.215 65.0111 169.13 68.1846 170.915C70.6549 172.305 71.7499 177.147 70.2883 179.511C68.1589 182.956 63.5821 183.092 60.0037 182.55C57.1539 182.118 51.4455 182.705 53.1214 186.939C55.2185 192.237 65.1158 189.46 66.6004 184.965C68.0457 180.589 60.2209 178.94 61.8996 174.837C63.0527 172.018 66.6936 168.5 69.9247 168.5C73.7949 168.5 69.9299 175.729 69.3533 176.862C66.8072 181.867 62.9116 182.366 57.978 183.719C48.6925 186.265 58.6957 186.623 59.2766 183.719" stroke="#00ADB5" stroke-opacity="0.5" stroke-linecap="round" stroke-linejoin="round"/>
<path d="M57.4067 229.999C56.4143 233.736 53.4803 240.113 53.7708 244.179C53.9069 246.084 54.4273 240.414 54.6538 238.518C55.0853 234.904 55.5789 230.823 57.5106 227.662C57.8534 227.101 65.782 236.997 66.4966 238.621C68.4089 242.968 66.0147 242.14 63.0164 243.556C61.35 244.343 49.979 248.357 49.979 247.296C49.979 246.184 52.1227 243.925 52.628 242.985C54.2097 240.042 55.9067 236.347 56.5756 233.064C58.0043 226.05 56.9392 240.483 56.9392 241.582C56.9392 242.249 57.1985 246.153 55.6407 246.153C53.691 246.153 56.9587 242.483 57.6145 240.647C58.3099 238.7 61.0779 232.961 60.3934 230.908C59.4239 228 58.939 236.908 58.8351 239.972C58.7647 242.048 57.7598 245.515 59.3805 242.153C59.8969 241.082 61.564 236.691 61.5361 237.011C61.3011 239.714 60.2116 242.5 60.2116 245.218C60.2116 248 61.6789 239.045 64.2111 237.894C64.8407 237.608 63.9514 242.887 63.9514 243.66C63.9514 245.067 65.3019 238.253 65.3019 239.66C65.3019 240.052 64.7415 242.423 64.315 241.686C62.5667 238.666 61.2514 236.8 57.6664 235.713C56.0337 235.217 50.8439 235.557 52.5501 235.557C53.6717 235.557 55.4331 231.654 56.6795 232.674C58.3333 234.027 56.0637 238.346 55.5368 239.816C54.6741 242.222 54.134 238.838 56.264 239.089C58.4833 239.35 56.2191 247.545 57.4586 245.686C58.034 244.823 59.7767 240.565 59.7181 241.063C58.5865 250.681 58.822 238.433 60.6791 241.218" stroke="#00ADB5" stroke-opacity="0.5" stroke-linecap="round" stroke-linejoin="round"/>
<path d="M288.808 102.845C294.756 102.551 300.5 104.75 299.56 97.7029C299.095 94.2107 297.138 88.5018 298.158 85.081C299.241 81.4492 305.891 73.2587 300.21 70.693C295.446 68.5416 289.22 74.6256 288.341 78.744C287.975 80.457 288.054 85.8081 290.886 85.8081C293.027 85.8081 294.394 83.7064 296.262 85.5744C298.704 88.0164 299.14 90.2439 297.405 93.3138C293.24 100.682 276.763 92.452 285.64 83.5746C286.857 82.3578 291.669 76.7774 293.951 78.3804C297.089 80.5858 296.665 86.3277 295.041 89.1844C293.423 92.033 287.482 95.0159 285.146 91.3659C283.992 89.5622 284.545 88.3533 286.471 88.3533" stroke="#00ADB5" stroke-opacity="0.5" stroke-linecap="round" stroke-linejoin="round"/>
<path d="M338.611 146.593C339.159 146.372 356.261 137.929 355.466 142.568C355.039 145.058 355.324 147.379 355.673 149.866C355.807 150.817 358.125 158.228 355.803 158.228C351.477 158.228 347.253 156.055 342.922 156.878C341.126 157.219 337.549 158.45 337.416 155.579C337.316 153.427 335.528 143.753 339.779 144.698C343.283 145.476 343.436 142.695 340.948 148.879C340.595 149.757 338.274 156.352 338.662 156.047C342.551 152.992 344.684 147.116 348.246 143.555C350.47 141.331 346.657 150.257 346.194 151.372C343.828 157.069 349.876 146.544 350.557 145.503C353.547 140.931 351.277 149.116 350.817 150.463C349.434 154.514 353.685 146.95 355.388 145.944C361.029 142.61 355.699 154.125 354.505 151.736" stroke="#00ADB5" stroke-opacity="0.5" stroke-linecap="round" stroke-linejoin="round"/>
<path d="M292.548 234.674C292.817 241.545 292.697 245.294 298.521 240.959C300.174 239.729 299.472 242.639 299.067 243.348C298.39 244.533 294.421 250.488 298.418 248.205C299.429 247.627 302.157 246.472 302.157 248.698C302.157 249.049 300.934 253.349 302.131 252.152C304.094 250.19 304.129 242.794 304.235 239.92C304.258 239.293 304.533 238.563 303.975 238.881C301.11 240.519 299.749 249.091 298.262 252.438C296.978 255.327 293.275 251.923 291.146 250.568C287.109 247.999 289.648 249.824 289.743 249.633" stroke="#00ADB5" stroke-opacity="0.5" stroke-linecap="round" stroke-linejoin="round"/>
<path d="M260.292 295.914C260.275 296.131 259.726 309.551 259.825 303.03C259.855 301.039 259.797 299.047 259.825 297.056C259.902 291.403 260.911 294.026 263.357 296.355C264.478 297.423 268.592 299.728 267.928 301.887C267.732 302.523 261.127 303.673 260.084 304.068C259.302 304.365 254.682 307.274 254.682 307.133C254.682 303.659 255.906 299.9 256.319 296.433C257.193 289.091 262.273 308.745 262.604 303.783C262.681 302.614 262.629 295.66 262.629 297.394C262.629 298.685 263.564 305.57 263.564 301.056C263.564 300.034 263.564 299.013 263.564 297.991C263.564 297.509 263.827 299.815 264.006 299.368C264.654 297.748 263.564 294.492 263.564 298.459C263.564 302.911 262.316 299.705 259.591 299.705C257.259 299.705 255.924 308.249 257.124 306.25C258.174 304.499 256.104 297.369 257.02 301.03C257.499 302.946 258.65 300.828 259.357 300.121" stroke="#00ADB5" stroke-opacity="0.5" stroke-linecap="round" stroke-linejoin="round"/>
<path fill-rule="evenodd" clip-rule="evenodd" d="M258.077 246.647C255.909 245.856 253.844 244.7 251.96 243.095C237.736 230.977 243.835 212.695 252.443 203.177C261.051 193.658 313.709 197.455 288.868 241.548C288.764 241.612 288.657 241.675 288.548 241.739C285.771 250.576 288.113 258.156 290.924 267.251C292.07 270.96 293.294 274.921 294.28 279.323L267.935 277.435C260.693 267.602 257.948 257.69 258.077 246.647Z" fill="#F5B9AB"/>
<path d="M251.96 243.095L252.413 242.562L251.96 243.095ZM258.077 246.647L258.317 245.99C258.596 246.092 258.78 246.358 258.777 246.655L258.077 246.647ZM252.443 203.177L251.924 202.707L252.443 203.177ZM288.868 241.548L289.478 241.892C289.418 241.997 289.333 242.085 289.229 242.148L288.868 241.548ZM288.548 241.739L287.881 241.529C287.933 241.364 288.045 241.224 288.194 241.136L288.548 241.739ZM290.924 267.251L290.255 267.457L290.924 267.251ZM294.28 279.323L294.963 279.17C295.011 279.386 294.954 279.612 294.81 279.779C294.666 279.947 294.451 280.036 294.23 280.02L294.28 279.323ZM267.935 277.435L267.885 278.133C267.68 278.118 267.493 278.015 267.371 277.85L267.935 277.435ZM252.413 242.562C254.23 244.11 256.222 245.225 258.317 245.99L257.837 247.304C255.596 246.486 253.458 245.289 251.506 243.627L252.413 242.562ZM252.962 203.646C248.739 208.315 245.139 215.133 244.335 222.239C243.535 229.314 245.501 236.673 252.413 242.562L251.506 243.627C244.195 237.398 242.099 229.558 242.945 222.082C243.787 214.639 247.539 207.556 251.924 202.707L252.962 203.646ZM288.259 241.205C294.422 230.265 295.707 221.949 294.188 215.78C292.673 209.63 288.333 205.462 282.9 202.89C277.456 200.314 270.962 199.366 265.295 199.655C262.464 199.799 259.861 200.251 257.715 200.949C255.557 201.652 253.922 202.584 252.962 203.646L251.924 202.707C253.116 201.39 255.01 200.358 257.282 199.619C259.567 198.875 262.295 198.407 265.224 198.258C271.074 197.959 277.806 198.932 283.498 201.626C289.2 204.325 293.905 208.78 295.546 215.445C297.183 222.092 295.735 230.785 289.478 241.892L288.259 241.205ZM288.194 241.136C288.301 241.073 288.405 241.011 288.508 240.949L289.229 242.148C289.122 242.212 289.013 242.277 288.903 242.342L288.194 241.136ZM290.255 267.457C287.454 258.392 285.029 250.605 287.881 241.529L289.216 241.949C286.513 250.548 288.773 257.92 291.592 267.044L290.255 267.457ZM293.598 279.476C292.618 275.105 291.402 271.169 290.255 267.457L291.592 267.044C292.737 270.751 293.969 274.737 294.963 279.17L293.598 279.476ZM267.985 276.737L294.33 278.625L294.23 280.02L267.885 278.133L267.985 276.737ZM258.777 246.655C258.649 257.558 261.353 267.318 268.498 277.02L267.371 277.85C260.033 267.886 257.247 257.823 257.378 246.639L258.777 246.655Z" fill="black"/>
<path d="M293.594 214.921C297.717 220.657 293.277 234.823 290 238.366C317.148 223.303 299.961 189.317 291.585 195.515C290.22 182.949 275.802 178.516 265.974 189.143C241.332 169.243 240.035 203.152 248.733 208.309C257.431 213.465 267.983 208.554 273.459 211.214C278.936 213.873 282.315 229.98 284.089 221.04C285.863 212.1 288.441 207.752 293.594 214.921Z" fill="#996DFF" stroke="black" stroke-width="1.39887"/>
<path d="M317.959 465.125L279.746 462.352L288.943 359.493C288.943 359.493 244.607 254.431 282.666 254.431C336.441 254.431 354.424 337.282 353.753 359.493C353.083 381.705 317.959 465.125 317.959 465.125Z" fill="#EEEEEE" stroke="black" stroke-width="1.39887"/>
<path d="M279.457 466.801L279.992 462.157L318.473 463.703L317.625 471.166C316.253 483.234 304.167 491.015 292.614 487.268C283.916 484.447 278.412 475.886 279.457 466.801Z" fill="#F5B9AB" stroke="black" stroke-width="1.39887" stroke-linejoin="round"/>
<path d="M223.991 391.105C199.134 367.005 230.024 287.173 235.062 277.673C242.397 264.134 264.413 240.581 293.797 254.681C338.231 276.002 317.927 381.5 309.939 418.069L223.991 391.105Z" fill="#EEEEEE" stroke="black" stroke-width="1.39887"/>
<path d="M30.4298 474.772L26.4242 438.563C26.4242 438.563 119.424 408.423 196.071 397.114L301.31 406.205C317.119 443.561 309.323 512.215 192.075 480.652L30.4298 474.772Z" fill="#996DFF" stroke="black" stroke-width="1.39887"/>
<path fill-rule="evenodd" clip-rule="evenodd" d="M143.123 411.333L126.599 462.725L91.93 461.031L76.7445 368.996C73.7923 351.104 87.5962 334.835 105.731 334.835L123.291 334.835L124.772 332.519L135.066 335.83C136.011 336.083 136.934 336.38 137.834 336.721L287.314 384.805C312.697 392.97 324.113 422.439 310.856 445.573L294.275 474.507C281.241 497.25 250.77 502.594 230.776 485.643L143.123 411.333Z" fill="#996DFF"/>
<path d="M143.123 411.333L143.575 410.799L142.777 410.123L142.457 411.119L143.123 411.333ZM126.599 462.725L126.565 463.423L127.101 463.449L127.265 462.939L126.599 462.725ZM91.93 461.031L91.2399 461.145L91.3318 461.702L91.8959 461.729L91.93 461.031ZM76.7445 368.996L76.0544 369.11H76.0544L76.7445 368.996ZM105.731 334.835V334.136V334.835ZM123.291 334.835V335.535L123.673 335.535L123.88 335.212L123.291 334.835ZM124.772 332.519L124.987 331.853L124.474 331.688L124.183 332.142L124.772 332.519ZM135.066 335.83L134.852 336.496L134.869 336.502L134.886 336.506L135.066 335.83ZM137.834 336.721L137.587 337.375L137.604 337.381L137.62 337.387L137.834 336.721ZM287.314 384.805L287.528 384.139L287.314 384.805ZM310.856 445.573L311.463 445.921L310.856 445.573ZM294.275 474.507L293.668 474.159L294.275 474.507ZM230.776 485.643L230.323 486.177L230.776 485.643ZM142.457 411.119L125.933 462.51L127.265 462.939L143.789 411.547L142.457 411.119ZM126.633 462.026L91.9641 460.332L91.8959 461.729L126.565 463.423L126.633 462.026ZM92.6201 460.917L77.4346 368.882L76.0544 369.11L91.2399 461.145L92.6201 460.917ZM77.4346 368.882C74.5526 351.416 88.028 335.535 105.731 335.535V334.136C87.1645 334.136 73.0319 350.791 76.0544 369.11L77.4346 368.882ZM105.731 335.535L123.291 335.535V334.136L105.731 334.136V335.535ZM123.88 335.212L125.362 332.896L124.183 332.142L122.701 334.458L123.88 335.212ZM124.558 333.185L134.852 336.496L135.281 335.165L124.987 331.853L124.558 333.185ZM134.886 336.506C135.807 336.752 136.708 337.043 137.587 337.375L138.082 336.067C137.16 335.718 136.214 335.413 135.247 335.155L134.886 336.506ZM137.62 337.387L287.1 385.471L287.528 384.139L138.049 336.055L137.62 337.387ZM287.1 385.471C312.059 393.499 323.285 422.477 310.249 445.225L311.463 445.921C324.941 422.401 313.334 392.44 287.528 384.139L287.1 385.471ZM310.249 445.225L293.668 474.159L294.882 474.855L311.463 445.921L310.249 445.225ZM293.668 474.159C280.852 496.523 250.889 501.778 231.228 485.11L230.323 486.177C250.651 503.41 281.631 497.977 294.882 474.855L293.668 474.159ZM231.228 485.11L143.575 410.799L142.671 411.866L230.323 486.177L231.228 485.11Z" fill="black"/>
<path d="M91.5313 460.64L126.982 462.736L129.731 492.497C129.731 492.497 98.6304 491.595 79.7643 485.695L92.4451 479.462L91.5313 460.64Z" fill="#EEEEEE" stroke="black" stroke-width="1.39887" stroke-linejoin="round"/>
<rect width="86.7894" height="16.273" rx="2.00878" transform="matrix(0.258819 0.965926 0.965926 -0.258819 79.583 243.697)" fill="#EEEEEE" stroke="black" stroke-width="1.39887"/>
<rect width="86.7894" height="16.273" rx="2.00878" transform="matrix(-1 0 0 1 185.388 319.042)" fill="#996DFF" stroke="black" stroke-width="1.39887"/>
<path d="M26.7001 438.589L31.085 474.79L4.62261 482.093C4.62261 482.093 -0.363074 450.903 2.05291 430.979L10.7922 442.46L26.7001 438.589Z" fill="#EEEEEE" stroke="black" stroke-width="1.39887" stroke-linejoin="round"/>
<path d="M158.111 344.959L177.97 311.87L238.858 345.024C236.066 306.76 262.33 251.693 289.908 255.047C338.291 260.931 302.646 380.187 270.952 401.208C239.258 422.229 158.111 344.959 158.111 344.959Z" fill="#EEEEEE"/>
<path d="M309.173 328.237C301.685 359.613 285.88 391.307 270.952 401.208C239.258 422.229 158.111 344.959 158.111 344.959L177.97 311.87L238.858 345.024L259.553 293.106" stroke="black" stroke-width="1.39887"/>
<path d="M174.354 309.359L178.157 312.078L158.15 344.986L152.034 340.626C142.144 333.576 141.198 319.233 150.075 310.945C156.759 304.704 166.916 304.041 174.354 309.359Z" fill="#F5B9AB" stroke="black" stroke-width="1.39887" stroke-linejoin="round"/>
<path d="M344.558 191.243C338.325 191.458 328.773 194.47 328.984 202.17C329.127 207.386 334.851 208.844 337.933 205.322" stroke="#00ADB5" stroke-opacity="0.5" stroke-linecap="round"/>
<path d="M355.738 194.142C352.244 193.268 346.365 197.436 344.466 200.031C341.842 203.615 348.915 205.447 351.091 206.288C354.241 207.506 350.334 207.856 348.791 208.312C346.83 208.892 344.928 209.587 342.902 209.877" stroke="#00ADB5" stroke-opacity="0.5" stroke-linecap="round"/>
<path d="M368.989 197.868C366.748 198.104 364.489 200.42 362.824 201.733C360.515 203.554 357.71 206.207 359.925 209.279C360.802 210.494 362.177 211.267 363.514 211.855C364.155 212.137 366.029 212.295 365.446 212.683C364.965 213.004 362.328 212.39 362.064 212.361C359.12 212.041 356.206 212.081 353.254 211.947" stroke="#00ADB5" stroke-opacity="0.5" stroke-linecap="round"/>
<path d="M396.593 173.365C396.559 176.639 396.41 179.906 396.296 183.178" stroke="#00ADB5" stroke-opacity="0.5" stroke-linecap="round"/>
<path d="M393.916 175.744C396.217 175.908 398.623 176.292 400.756 177.198C401.091 177.34 402.705 178.267 401.483 178.552C398.907 179.154 395.766 178.389 393.189 178.189C390.064 177.946 386.94 177.825 383.805 177.825" stroke="#00ADB5" stroke-opacity="0.5" stroke-linecap="round"/>
<path d="M406.407 177.825C406.091 179.602 406.109 181.349 406.109 183.145C406.109 184.445 406.353 186.517 405.944 183.889C405.849 183.277 405.009 180.698 405.713 180.865C406.764 181.116 407.766 181.649 408.786 181.989" stroke="#00ADB5" stroke-opacity="0.5" stroke-linecap="round"/>
<path d="M411.463 179.907C411.141 182.605 410.295 185.291 409.678 187.937" stroke="#00ADB5" stroke-opacity="0.5" stroke-linecap="round"/>
<path d="M417.41 182.286C416.187 184.551 415.018 186.838 413.841 189.126" stroke="#00ADB5" stroke-opacity="0.5" stroke-linecap="round"/>
<path d="M415.923 180.502C416.765 181.143 422.534 185.229 419.062 184.831C416.219 184.504 413.422 183.793 410.57 183.476" stroke="#00ADB5" stroke-opacity="0.5" stroke-linecap="round"/>
<path d="M87.68 143.759C85.7612 139.231 83.4798 134.359 80.2348 130.601C79.867 130.175 81.2152 131.186 81.7609 131.323C85.3196 132.219 88.6509 130.652 91.7635 129.096" stroke="#00ADB5" stroke-opacity="0.5" stroke-linecap="round"/>
<path d="M83.0398 137.077C85.6593 137.016 88.2509 136.748 90.8356 136.335" stroke="#00ADB5" stroke-opacity="0.5" stroke-linecap="round"/>
<path d="M93.063 135.407C94.2456 136.927 94.5297 139.386 95.2904 141.161" stroke="#00ADB5" stroke-opacity="0.5" stroke-linecap="round"/>
<path d="M103.457 134.107C102.173 134.413 95.8186 135.869 96.8164 138.212C97.3958 139.572 99.6624 140.746 101.106 140.79C103.426 140.86 101.407 135.568 99.8068 137.768C98.7764 139.185 103.086 139.45 103.808 139.49C104.039 139.503 104.18 139.443 104.035 139.686C103.206 141.067 102.3 142.402 101.467 143.78C99.3739 147.242 97.4725 150.932 95.9089 154.669C95.5772 155.462 95.9256 154.5 96.0327 154.339" stroke="#00ADB5" stroke-opacity="0.5" stroke-linecap="round"/>
<path d="M108.098 140.047C108.406 138.4 109.216 136.796 109.902 135.283C110.194 134.64 110.717 132.752 110.923 133.427C111.057 133.865 111.527 136.507 112.037 135.469C112.348 134.835 113.63 132.411 113.666 134.231C113.705 136.182 113.868 138.046 114.594 139.861" stroke="#00ADB5" stroke-opacity="0.5" stroke-linecap="round"/>
<path d="M117.935 138.562C118.506 137.483 119.076 136.403 119.647 135.324C119.996 134.664 120.663 132.767 121.348 132.272C121.585 132.101 121.386 132.857 121.369 133.148C121.292 134.449 121.272 135.754 121.276 137.057C121.281 138.502 120.946 140.965 121.812 142.264C122.073 142.656 121.596 141.615 121.482 141.491C120.594 140.517 119.418 139.687 118.255 139.078C118.173 139.035 116.42 138.351 116.883 138.191C118.665 137.578 120.77 137.509 122.617 137.17C124.167 136.885 125.693 136.55 127.216 136.149" stroke="#00ADB5" stroke-opacity="0.5" stroke-linecap="round"/>
<path d="M88.3875 99.5888C87.7076 103.151 87.3644 106.533 87.5085 110.136" stroke="#00ADB5" stroke-opacity="0.5" stroke-linecap="round"/>
<path d="M81.0627 101.933C83.8954 102.229 86.6892 102.986 89.3964 103.853C89.6458 103.933 94.9037 105.334 93.0911 106.62C91.1996 107.963 88.2922 108.555 86.0434 108.964" stroke="#00ADB5" stroke-opacity="0.5" stroke-linecap="round"/>
<path d="M88.6802 108.964C87.4793 109.264 90.2162 112.179 90.5032 112.415C91.577 113.298 93.0927 114.238 94.5398 114.238" stroke="#00ADB5" stroke-opacity="0.5" stroke-linecap="round"/>
<path d="M100.985 113.359C98.4418 112.85 95.95 112.297 93.4819 111.487C93.2583 111.414 90.5762 110.715 90.2754 110.136C89.8539 109.325 97.1532 109.548 97.4208 109.583C97.6387 109.611 103.021 110.607 101.002 110.706C99.2443 110.791 97.4713 110.722 95.7118 110.722" stroke="#00ADB5" stroke-opacity="0.5" stroke-linecap="round"/>
<path d="M105.673 115.703C107.109 113.004 109.013 110.42 110.963 108.069C111.543 107.369 111.295 109.16 111.305 109.322C111.378 110.494 111.533 111.653 111.63 112.822C111.699 113.651 110.479 112.421 110.165 112.252C109.261 111.765 108.213 111.602 107.431 111.015" stroke="#00ADB5" stroke-opacity="0.5" stroke-linecap="round"/>
<path d="M121.201 108.964C119.807 110.44 110.845 114.215 112.379 117.102C113.25 118.741 116.017 119.218 117.685 119.218" stroke="#00ADB5" stroke-opacity="0.5" stroke-linecap="round"/>
<path d="M125.303 111.601C124.285 113.478 123.086 115.186 121.787 116.875" stroke="#00ADB5" stroke-opacity="0.5" stroke-linecap="round"/>
<path d="M116.22 114.238C123.762 114.469 131.254 114.334 138.78 113.945" stroke="#00ADB5" stroke-opacity="0.5" stroke-linecap="round"/>
</svg>
