<svg width="48" height="48" viewBox="0 0 48 48" fill="none" xmlns="http://www.w3.org/2000/svg">
<rect width="48" height="48" rx="24" fill="#393E46"/>
<path d="M14 32.5126C14 32.7751 14.225 33.0001 14.4875 33.0001H17.975C18.2375 33.0001 18.4625 32.7751 18.4625 32.5126V20.9626C18.4625 20.7001 18.2375 20.4751 17.975 20.4751H14.4875C14.225 20.4751 14 20.7001 14 20.9626V32.5126Z" fill="#EEEEEE" fill-opacity="0.75"/>
<path d="M28.4751 20.3625C26.7876 20.3625 25.5876 21.0375 24.9501 21.75C24.8001 21.9 24.5376 21.7875 24.5376 21.5625V20.9625C24.5376 20.7 24.3126 20.475 24.0501 20.475H20.5251C20.2626 20.475 20.0376 20.7 20.0376 20.9625C20.0751 23.1 20.0376 30.4875 20.0376 32.475C20.0376 32.7375 20.2626 32.9625 20.5251 32.9625H24.0876C24.3501 32.9625 24.5751 32.7375 24.5751 32.475V26.2125C24.5751 25.8375 24.5751 25.4625 24.6876 25.2C24.9876 24.45 25.6626 23.6625 26.8251 23.6625C28.3626 23.6625 29.0751 24.825 29.0751 26.5125V32.475C29.0751 32.7375 29.3001 32.9625 29.5626 32.9625H33.0501C33.3126 32.9625 33.5376 32.7375 33.5376 32.475V26.025C33.5001 22.1625 31.2876 20.3625 28.4751 20.3625Z" fill="#EEEEEE" fill-opacity="0.75"/>
<path d="M16.2125 19.0875C17.6375 19.0875 18.5 18.1875 18.5 17.0625C18.4625 15.8625 17.6375 15 16.25 15C14.8625 15 14 15.8625 14 17.025C14 18.1875 14.8625 19.0875 16.2125 19.0875Z" fill="#EEEEEE" fill-opacity="0.75"/>
</svg>
