<svg width="207" height="21" viewBox="0 0 207 21" fill="none" xmlns="http://www.w3.org/2000/svg">
<path d="M5.232 10.6C5.232 9.56 5.464 8.672 5.928 7.936C6.392 7.2 7 6.64 7.752 6.256C8.52 5.872 9.36 5.68 10.272 5.68C11.072 5.68 11.776 5.784 12.384 5.992C12.992 6.184 13.536 6.456 14.016 6.808C14.496 7.144 14.92 7.504 15.288 7.888V3.52C14.616 2.992 13.88 2.576 13.08 2.272C12.28 1.968 11.264 1.816 10.032 1.816C8.688 1.816 7.448 2.024 6.312 2.44C5.176 2.856 4.2 3.456 3.384 4.24C2.568 5.024 1.936 5.952 1.488 7.024C1.04 8.096 0.816 9.288 0.816 10.6C0.816 11.912 1.04 13.104 1.488 14.176C1.936 15.248 2.568 16.176 3.384 16.96C4.2 17.744 5.176 18.344 6.312 18.76C7.448 19.176 8.688 19.384 10.032 19.384C11.264 19.384 12.28 19.232 13.08 18.928C13.88 18.624 14.616 18.208 15.288 17.68V13.312C14.92 13.696 14.496 14.056 14.016 14.392C13.536 14.728 12.992 15 12.384 15.208C11.776 15.416 11.072 15.52 10.272 15.52C9.36 15.52 8.52 15.328 7.752 14.944C7 14.56 6.392 14 5.928 13.264C5.464 12.512 5.232 11.624 5.232 10.6ZM21.0521 15.544C21.0521 15.272 21.1161 15.048 21.2441 14.872C21.3721 14.68 21.5641 14.536 21.8201 14.44C22.0761 14.344 22.4201 14.296 22.8521 14.296C23.4121 14.296 23.9401 14.376 24.4361 14.536C24.9481 14.68 25.3961 14.896 25.7801 15.184V13.576C25.5881 13.368 25.3001 13.168 24.9161 12.976C24.5321 12.784 24.0681 12.624 23.5241 12.496C22.9961 12.368 22.3961 12.304 21.7241 12.304C20.3481 12.304 19.2841 12.616 18.5321 13.24C17.7801 13.848 17.4041 14.68 17.4041 15.736C17.4041 16.488 17.5801 17.128 17.9321 17.656C18.3001 18.184 18.7801 18.584 19.3721 18.856C19.9801 19.112 20.6361 19.24 21.3401 19.24C22.0441 19.24 22.7001 19.12 23.3081 18.88C23.9161 18.624 24.4121 18.256 24.7961 17.776C25.1801 17.28 25.3721 16.68 25.3721 15.976L24.9881 14.536C24.9881 15.048 24.8761 15.48 24.6521 15.832C24.4281 16.184 24.1401 16.448 23.7881 16.624C23.4361 16.8 23.0521 16.888 22.6361 16.888C22.3481 16.888 22.0841 16.84 21.8441 16.744C21.6041 16.632 21.4121 16.48 21.2681 16.288C21.1241 16.08 21.0521 15.832 21.0521 15.544ZM19.4441 11.344C19.6041 11.248 19.8601 11.128 20.2121 10.984C20.5641 10.824 20.9721 10.688 21.4361 10.576C21.9161 10.464 22.4041 10.408 22.9001 10.408C23.2361 10.408 23.5321 10.44 23.7881 10.504C24.0601 10.568 24.2841 10.672 24.4601 10.816C24.6361 10.96 24.7641 11.136 24.8441 11.344C24.9401 11.536 24.9881 11.768 24.9881 12.04V19H28.4681V11.224C28.4681 10.456 28.2441 9.808 27.7961 9.28C27.3481 8.752 26.7401 8.352 25.9721 8.08C25.2041 7.792 24.3321 7.648 23.3561 7.648C22.3161 7.648 21.3561 7.784 20.4761 8.056C19.5961 8.328 18.8441 8.616 18.2201 8.92L19.4441 11.344ZM30.9656 3.808C30.9656 4.384 31.1736 4.856 31.5896 5.224C32.0056 5.592 32.5016 5.776 33.0776 5.776C33.6696 5.776 34.1656 5.592 34.5656 5.224C34.9816 4.856 35.1896 4.384 35.1896 3.808C35.1896 3.232 34.9816 2.768 34.5656 2.416C34.1656 2.048 33.6696 1.864 33.0776 1.864C32.5016 1.864 32.0056 2.048 31.5896 2.416C31.1736 2.768 30.9656 3.232 30.9656 3.808ZM31.3256 7.96V19H34.8296V7.96H31.3256ZM37.1664 13.48C37.1664 14.632 37.4384 15.64 37.9824 16.504C38.5264 17.368 39.2784 18.04 40.2384 18.52C41.1984 19 42.2784 19.24 43.4784 19.24C44.6784 19.24 45.7504 19 46.6944 18.52C47.6544 18.04 48.4064 17.368 48.9504 16.504C49.5104 15.64 49.7904 14.632 49.7904 13.48C49.7904 12.312 49.5104 11.296 48.9504 10.432C48.4064 9.568 47.6544 8.896 46.6944 8.416C45.7504 7.936 44.6784 7.696 43.4784 7.696C42.2784 7.696 41.1984 7.936 40.2384 8.416C39.2784 8.896 38.5264 9.568 37.9824 10.432C37.4384 11.296 37.1664 12.312 37.1664 13.48ZM40.8864 13.48C40.8864 12.904 41.0064 12.408 41.2464 11.992C41.4864 11.576 41.7984 11.256 42.1824 11.032C42.5664 10.808 42.9984 10.696 43.4784 10.696C43.9424 10.696 44.3664 10.808 44.7504 11.032C45.1504 11.256 45.4624 11.576 45.6864 11.992C45.9264 12.408 46.0464 12.904 46.0464 13.48C46.0464 14.056 45.9264 14.552 45.6864 14.968C45.4624 15.368 45.1504 15.68 44.7504 15.904C44.3664 16.128 43.9424 16.24 43.4784 16.24C42.9984 16.24 42.5664 16.128 42.1824 15.904C41.7984 15.68 41.4864 15.368 41.2464 14.968C41.0064 14.552 40.8864 14.056 40.8864 13.48ZM62.55 10.648H65.694C66.862 10.648 67.886 10.488 68.766 10.168C69.662 9.832 70.366 9.352 70.878 8.728C71.406 8.104 71.67 7.352 71.67 6.472C71.67 5.512 71.406 4.72 70.878 4.096C70.366 3.456 69.662 2.984 68.766 2.68C67.886 2.36 66.862 2.2 65.694 2.2H59.526V19H66.102C67.43 19 68.582 18.84 69.558 18.52C70.534 18.184 71.286 17.672 71.814 16.984C72.358 16.296 72.63 15.392 72.63 14.272C72.63 13.424 72.438 12.704 72.054 12.112C71.686 11.504 71.19 11.008 70.566 10.624C69.942 10.224 69.246 9.936 68.478 9.76C67.71 9.584 66.918 9.496 66.102 9.496H62.55V11.704H65.646C66.046 11.704 66.406 11.744 66.726 11.824C67.062 11.888 67.358 12 67.614 12.16C67.87 12.32 68.07 12.528 68.214 12.784C68.358 13.04 68.43 13.344 68.43 13.696C68.43 14.24 68.302 14.672 68.046 14.992C67.806 15.296 67.478 15.52 67.062 15.664C66.646 15.792 66.174 15.856 65.646 15.856H63.582V5.344H65.262C65.966 5.344 66.51 5.488 66.894 5.776C67.278 6.064 67.47 6.496 67.47 7.072C67.47 7.456 67.382 7.784 67.206 8.056C67.03 8.312 66.774 8.512 66.438 8.656C66.118 8.8 65.726 8.872 65.262 8.872H62.55V10.648ZM77.9115 15.544C77.9115 15.272 77.9755 15.048 78.1035 14.872C78.2315 14.68 78.4235 14.536 78.6795 14.44C78.9355 14.344 79.2795 14.296 79.7115 14.296C80.2715 14.296 80.7995 14.376 81.2955 14.536C81.8075 14.68 82.2555 14.896 82.6395 15.184V13.576C82.4475 13.368 82.1595 13.168 81.7755 12.976C81.3915 12.784 80.9275 12.624 80.3835 12.496C79.8555 12.368 79.2555 12.304 78.5835 12.304C77.2075 12.304 76.1435 12.616 75.3915 13.24C74.6395 13.848 74.2635 14.68 74.2635 15.736C74.2635 16.488 74.4395 17.128 74.7915 17.656C75.1595 18.184 75.6395 18.584 76.2315 18.856C76.8395 19.112 77.4955 19.24 78.1995 19.24C78.9035 19.24 79.5595 19.12 80.1675 18.88C80.7755 18.624 81.2715 18.256 81.6555 17.776C82.0395 17.28 82.2315 16.68 82.2315 15.976L81.8475 14.536C81.8475 15.048 81.7355 15.48 81.5115 15.832C81.2875 16.184 80.9995 16.448 80.6475 16.624C80.2955 16.8 79.9115 16.888 79.4955 16.888C79.2075 16.888 78.9435 16.84 78.7035 16.744C78.4635 16.632 78.2715 16.48 78.1275 16.288C77.9835 16.08 77.9115 15.832 77.9115 15.544ZM76.3035 11.344C76.4635 11.248 76.7195 11.128 77.0715 10.984C77.4235 10.824 77.8315 10.688 78.2955 10.576C78.7755 10.464 79.2635 10.408 79.7595 10.408C80.0955 10.408 80.3915 10.44 80.6475 10.504C80.9195 10.568 81.1435 10.672 81.3195 10.816C81.4955 10.96 81.6235 11.136 81.7035 11.344C81.7995 11.536 81.8475 11.768 81.8475 12.04V19H85.3275V11.224C85.3275 10.456 85.1035 9.808 84.6555 9.28C84.2075 8.752 83.5995 8.352 82.8315 8.08C82.0635 7.792 81.1915 7.648 80.2155 7.648C79.1755 7.648 78.2155 7.784 77.3355 8.056C76.4555 8.328 75.7035 8.616 75.0795 8.92L76.3035 11.344ZM91.617 7.96H88.041V19H91.617V7.96ZM94.809 11.704L96.369 8.608C96.177 8.32 95.897 8.096 95.529 7.936C95.161 7.776 94.777 7.696 94.377 7.696C93.769 7.696 93.185 7.896 92.625 8.296C92.065 8.696 91.609 9.24 91.257 9.928C90.921 10.616 90.753 11.4 90.753 12.28L91.617 13.552C91.617 13.024 91.689 12.576 91.833 12.208C91.977 11.84 92.185 11.56 92.457 11.368C92.729 11.176 93.041 11.08 93.393 11.08C93.713 11.08 93.977 11.136 94.185 11.248C94.409 11.36 94.617 11.512 94.809 11.704ZM101.508 0.279999H97.8842V19H101.508V0.279999ZM110.532 13.48C110.532 12.232 110.276 11.184 109.764 10.336C109.268 9.488 108.62 8.84 107.82 8.392C107.036 7.944 106.188 7.72 105.276 7.72C104.364 7.72 103.548 7.952 102.828 8.416C102.108 8.88 101.54 9.544 101.124 10.408C100.708 11.256 100.5 12.28 100.5 13.48C100.5 14.664 100.708 15.688 101.124 16.552C101.54 17.416 102.108 18.08 102.828 18.544C103.548 19.008 104.364 19.24 105.276 19.24C106.188 19.24 107.036 19.016 107.82 18.568C108.62 18.12 109.268 17.472 109.764 16.624C110.276 15.76 110.532 14.712 110.532 13.48ZM106.716 13.48C106.716 14.056 106.596 14.56 106.356 14.992C106.116 15.408 105.796 15.736 105.396 15.976C104.996 16.2 104.556 16.312 104.076 16.312C103.66 16.312 103.252 16.2 102.852 15.976C102.468 15.752 102.148 15.432 101.892 15.016C101.636 14.584 101.508 14.072 101.508 13.48C101.508 12.888 101.636 12.384 101.892 11.968C102.148 11.536 102.468 11.208 102.852 10.984C103.252 10.76 103.66 10.648 104.076 10.648C104.556 10.648 104.996 10.768 105.396 11.008C105.796 11.232 106.116 11.56 106.356 11.992C106.596 12.408 106.716 12.904 106.716 13.48ZM112.073 13.48C112.073 14.632 112.345 15.64 112.889 16.504C113.433 17.368 114.185 18.04 115.145 18.52C116.105 19 117.185 19.24 118.385 19.24C119.585 19.24 120.657 19 121.601 18.52C122.561 18.04 123.313 17.368 123.857 16.504C124.417 15.64 124.697 14.632 124.697 13.48C124.697 12.312 124.417 11.296 123.857 10.432C123.313 9.568 122.561 8.896 121.601 8.416C120.657 7.936 119.585 7.696 118.385 7.696C117.185 7.696 116.105 7.936 115.145 8.416C114.185 8.896 113.433 9.568 112.889 10.432C112.345 11.296 112.073 12.312 112.073 13.48ZM115.793 13.48C115.793 12.904 115.913 12.408 116.153 11.992C116.393 11.576 116.705 11.256 117.089 11.032C117.473 10.808 117.905 10.696 118.385 10.696C118.849 10.696 119.273 10.808 119.657 11.032C120.057 11.256 120.369 11.576 120.593 11.992C120.833 12.408 120.953 12.904 120.953 13.48C120.953 14.056 120.833 14.552 120.593 14.968C120.369 15.368 120.057 15.68 119.657 15.904C119.273 16.128 118.849 16.24 118.385 16.24C117.905 16.24 117.473 16.128 117.089 15.904C116.705 15.68 116.393 15.368 116.153 14.968C115.913 14.552 115.793 14.056 115.793 13.48ZM127.477 14.992L125.965 17.392C126.461 17.776 126.997 18.128 127.573 18.448C128.149 18.752 128.773 18.992 129.445 19.168C130.133 19.36 130.877 19.456 131.677 19.456C132.989 19.456 134.005 19.16 134.725 18.568C135.461 17.96 135.829 17.064 135.829 15.88C135.829 15.192 135.677 14.64 135.373 14.224C135.085 13.808 134.693 13.464 134.197 13.192C133.717 12.92 133.189 12.68 132.613 12.472C132.069 12.264 131.605 12.096 131.221 11.968C130.853 11.824 130.565 11.672 130.357 11.512C130.165 11.352 130.069 11.152 130.069 10.912C130.069 10.704 130.149 10.536 130.309 10.408C130.485 10.28 130.741 10.216 131.077 10.216C131.573 10.216 132.117 10.36 132.709 10.648C133.301 10.92 133.829 11.272 134.293 11.704L135.589 9.352C135.157 9.032 134.693 8.752 134.197 8.512C133.717 8.272 133.197 8.08 132.637 7.936C132.093 7.792 131.501 7.72 130.861 7.72C130.061 7.72 129.349 7.84 128.725 8.08C128.117 8.32 127.629 8.672 127.261 9.136C126.909 9.6 126.733 10.168 126.733 10.84C126.733 11.544 126.885 12.12 127.189 12.568C127.493 13.016 127.877 13.376 128.341 13.648C128.821 13.904 129.325 14.128 129.853 14.32C130.445 14.496 130.909 14.664 131.245 14.824C131.597 14.984 131.845 15.152 131.989 15.328C132.133 15.488 132.205 15.688 132.205 15.928C132.205 16.184 132.117 16.392 131.941 16.552C131.765 16.712 131.493 16.792 131.125 16.792C130.869 16.792 130.565 16.744 130.213 16.648C129.861 16.536 129.453 16.352 128.989 16.096C128.541 15.824 128.037 15.456 127.477 14.992ZM140.63 15.544C140.63 15.272 140.694 15.048 140.822 14.872C140.95 14.68 141.142 14.536 141.398 14.44C141.654 14.344 141.998 14.296 142.43 14.296C142.99 14.296 143.518 14.376 144.014 14.536C144.526 14.68 144.974 14.896 145.358 15.184V13.576C145.166 13.368 144.878 13.168 144.494 12.976C144.11 12.784 143.646 12.624 143.102 12.496C142.574 12.368 141.974 12.304 141.302 12.304C139.926 12.304 138.862 12.616 138.11 13.24C137.358 13.848 136.982 14.68 136.982 15.736C136.982 16.488 137.158 17.128 137.51 17.656C137.878 18.184 138.358 18.584 138.95 18.856C139.558 19.112 140.214 19.24 140.918 19.24C141.622 19.24 142.278 19.12 142.886 18.88C143.494 18.624 143.99 18.256 144.374 17.776C144.758 17.28 144.95 16.68 144.95 15.976L144.566 14.536C144.566 15.048 144.454 15.48 144.23 15.832C144.006 16.184 143.718 16.448 143.366 16.624C143.014 16.8 142.63 16.888 142.214 16.888C141.926 16.888 141.662 16.84 141.422 16.744C141.182 16.632 140.99 16.48 140.846 16.288C140.702 16.08 140.63 15.832 140.63 15.544ZM139.022 11.344C139.182 11.248 139.438 11.128 139.79 10.984C140.142 10.824 140.55 10.688 141.014 10.576C141.494 10.464 141.982 10.408 142.478 10.408C142.814 10.408 143.11 10.44 143.366 10.504C143.638 10.568 143.862 10.672 144.038 10.816C144.214 10.96 144.342 11.136 144.422 11.344C144.518 11.536 144.566 11.768 144.566 12.04V19H148.046V11.224C148.046 10.456 147.822 9.808 147.374 9.28C146.926 8.752 146.318 8.352 145.55 8.08C144.782 7.792 143.91 7.648 142.934 7.648C141.894 7.648 140.934 7.784 140.054 8.056C139.174 8.328 138.422 8.616 137.798 8.92L139.022 11.344ZM158.315 2.2V19H162.491V2.2H158.315ZM164.315 19C166.155 19 167.747 18.656 169.091 17.968C170.435 17.28 171.475 16.312 172.211 15.064C172.947 13.8 173.315 12.312 173.315 10.6C173.315 8.872 172.947 7.384 172.211 6.136C171.475 4.888 170.435 3.92 169.091 3.232C167.747 2.544 166.155 2.2 164.315 2.2H161.003V5.8H164.171C164.811 5.8 165.427 5.88 166.019 6.04C166.627 6.2 167.155 6.464 167.603 6.832C168.067 7.2 168.435 7.696 168.707 8.32C168.979 8.928 169.115 9.688 169.115 10.6C169.115 11.512 168.979 12.28 168.707 12.904C168.435 13.512 168.067 14 167.603 14.368C167.155 14.736 166.627 15 166.019 15.16C165.427 15.32 164.811 15.4 164.171 15.4H161.003V19H164.315ZM181.173 19.24C182.581 19.24 183.773 18.968 184.749 18.424C185.741 17.88 186.525 17.064 187.101 15.976L183.861 15.184C183.589 15.664 183.221 16.024 182.757 16.264C182.309 16.504 181.765 16.624 181.125 16.624C180.565 16.624 180.093 16.504 179.709 16.264C179.325 16.008 179.037 15.64 178.845 15.16C178.653 14.68 178.557 14.104 178.557 13.432C178.573 12.696 178.669 12.088 178.845 11.608C179.037 11.112 179.317 10.744 179.685 10.504C180.053 10.264 180.509 10.144 181.053 10.144C181.485 10.144 181.861 10.24 182.181 10.432C182.501 10.624 182.749 10.896 182.925 11.248C183.101 11.6 183.189 12.016 183.189 12.496C183.189 12.608 183.157 12.752 183.093 12.928C183.045 13.088 182.981 13.224 182.901 13.336L183.765 12.232H176.949V14.248H187.029C187.061 14.136 187.077 14 187.077 13.84C187.077 13.664 187.077 13.488 187.077 13.312C187.077 12.128 186.845 11.12 186.381 10.288C185.917 9.456 185.245 8.824 184.365 8.392C183.485 7.944 182.405 7.72 181.125 7.72C179.845 7.72 178.733 7.952 177.789 8.416C176.861 8.88 176.149 9.544 175.653 10.408C175.157 11.272 174.909 12.296 174.909 13.48C174.909 14.648 175.165 15.664 175.677 16.528C176.189 17.392 176.909 18.064 177.837 18.544C178.781 19.008 179.893 19.24 181.173 19.24ZM187.475 7.96L193.883 20.296L200.267 7.96H196.403L193.883 14.08L191.339 7.96H187.475Z" fill="#EEEEEE"/>
<path d="M201.811 17.368C201.811 17.976 202.027 18.496 202.459 18.928C202.891 19.36 203.427 19.576 204.067 19.576C204.739 19.576 205.283 19.36 205.699 18.928C206.115 18.496 206.323 17.976 206.323 17.368C206.323 16.76 206.115 16.24 205.699 15.808C205.283 15.376 204.739 15.16 204.067 15.16C203.427 15.16 202.891 15.376 202.459 15.808C202.027 16.24 201.811 16.76 201.811 17.368Z" fill="#996DFF"/>
</svg>
